<svg width="48" height="48" viewBox="0 0 48 48" fill="none" xmlns="http://www.w3.org/2000/svg">
<path d="M9 26.2727V11C9 9.89543 9.89543 9 11 9H37C38.1046 9 39 9.89543 39 11V13.5455M9 32.1818V37C9 38.1046 9.89543 39 11 39H37C38.1046 39 39 38.1046 39 37V20.2263" stroke="#3D90E3" stroke-linecap="round"/>
<ellipse cx="24.1113" cy="16.3479" rx="11.1113" ry="4.34791" stroke="#3D90E3"/>
<path d="M13 15.8649V19.6331C13 22.3546 17.9747 24.5608 24.1113 24.5608C30.2479 24.5608 35.2227 22.3546 35.2227 19.6331V15.8649" stroke="#3D90E3"/>
<path d="M13 19.7296V24.0453C13 26.4644 17.9747 28.4255 24.1113 28.4255C30.2479 28.4255 35.2227 26.4644 35.2227 24.0453V19.7296" stroke="#3D90E3"/>
<path d="M13 24.5608V27.9103C13 30.3293 17.9747 32.2904 24.1113 32.2904C30.2479 32.2904 35.2227 30.3293 35.2227 27.9103V24.5608" stroke="#3D90E3"/>
<path d="M13 28.4255V31.775C13 34.1941 17.9747 36.1551 24.1113 36.1551C30.2479 36.1551 35.2227 34.1941 35.2227 31.775V28.4255" stroke="#3D90E3"/>
<path d="M3 35C3.7619 33.4444 6.42857 29.8667 11 28" stroke="#3D90E3" stroke-linecap="round"/>
<path d="M45 11C44.2381 12.5556 41.5714 16.1333 37 18" stroke="#3D90E3" stroke-linecap="round"/>
<path d="M41.9097 11.0502C41.6381 11.1001 41.4583 11.3607 41.5082 11.6323C41.5581 11.9039 41.8187 12.0837 42.0903 12.0338L41.9097 11.0502ZM44.9506 10.9999L45.4424 10.9096L45.352 10.4178L44.8603 10.5082L44.9506 10.9999ZM45.0009 14.0409C45.0508 14.3125 45.3114 14.4922 45.583 14.4423C45.8546 14.3924 46.0344 14.1318 45.9845 13.8602L45.0009 14.0409ZM42.0903 12.0338L45.041 11.4917L44.8603 10.5082L41.9097 11.0502L42.0903 12.0338ZM44.4589 11.0903L45.0009 14.0409L45.9845 13.8602L45.4424 10.9096L44.4589 11.0903Z" fill="#3D90E3"/>
</svg>
