<svg width="48" height="48" viewBox="0 0 48 48" fill="none" xmlns="http://www.w3.org/2000/svg">
<path d="M19.835 27.3175V14H27.1596C28.2694 14 30.489 14.6659 30.489 17.3294" stroke="#3D90E3"/>
<path d="M30.489 19.6926V30.3467C30.489 31.4564 29.8231 33.676 27.1596 33.676C24.4961 33.676 21.1667 33.676 19.835 33.676V30.3467" stroke="#3D90E3"/>
<path d="M22.3486 18.511H31.005C32.3368 18.511 35.0003 19.31 35.0003 22.5062C35.0003 24.1043 35.0003 25.8356 35.0003 26.5015C35.0003 27.3893 34.4676 29.165 32.3368 29.165" stroke="#3D90E3"/>
<path d="M29.3066 29.165C24.6455 29.165 15.3232 29.165 15.3232 29.165V18.511C16.2111 18.511 18.6526 18.511 18.6526 18.511" stroke="#3D90E3"/>
<path d="M6 17.5C8.65477 10.2076 15.6488 5 23.8591 5C32.0694 5 39.0634 10.2076 41.7181 17.5M6 30.5C8.65477 37.7924 15.6488 43 23.8591 43C32.0694 43 39.0634 37.7924 41.7181 30.5" stroke="#3D90E3"/>
<path d="M38 32L42 30L43.5 34" stroke="#3D90E3"/>
<path d="M9.67744 16.5591L6 17.5L4.41424 14" stroke="#3D90E3"/>
</svg>
