<svg width="48" height="48" viewBox="0 0 48 48" fill="none" xmlns="http://www.w3.org/2000/svg">
<path d="M20.4805 16.1281V8.83191H24.4934C25.1014 8.83191 26.3175 9.19672 26.3175 10.656" stroke="#3D90E3"/>
<path d="M26.3175 14.3042V20.1412C26.3175 20.7492 25.9526 21.9652 24.4934 21.9652C23.0342 21.9652 21.2101 21.9652 20.4805 21.9652V20.1412" stroke="#3D90E3"/>
<path d="M23.0342 12.4801H27.7767C28.5064 12.4801 29.9656 12.9178 29.9656 14.6689C29.9656 15.5445 29.9656 16.493 29.9656 16.8578C29.9656 17.3442 29.6738 18.3171 28.5064 18.3171" stroke="#3D90E3"/>
<path d="M24.4931 18.3171C21.9394 18.3171 16.832 18.3171 16.832 18.3171V12.4801C17.3184 12.4801 18.6561 12.4801 18.6561 12.4801" stroke="#3D90E3"/>
<circle cx="23.5" cy="15.5" r="12.5" stroke="#3D90E3"/>
<path fill-rule="evenodd" clip-rule="evenodd" d="M39.409 19.8923C39.3183 20.2216 39.2176 20.5468 39.1073 20.8675L44.9613 24.0825L24 35.5945L3.03868 24.0825L8.05797 21.3259C7.93884 21.0103 7.82911 20.6901 7.72912 20.3656L1.75931 23.6443L1.5 23.7867L1.5 24.0825L1.5 35.0395V35.3368L1.76118 35.4788L23.7612 47.4393L24 47.5692L24.2388 47.4393L46.2388 35.4788L46.5 35.3368V35.0395V24.0825V23.7867L46.2407 23.6443L39.409 19.8923ZM24.5 36.4608L45.5 24.9276V34.7422L24.5 46.1591V36.4608ZM23.5 36.4608V46.1591L2.5 34.7422L2.5 24.9276L23.5 36.4608Z" fill="#3D90E3"/>
<path d="M9 33L22 40.0676" stroke="#3D90E3" stroke-linecap="round"/>
<path d="M5 31L6 31.5" stroke="#3D90E3" stroke-linecap="round"/>
</svg>
