<svg preserveAspectRatio="none" width="1910" height="196" viewBox="0 0 1910 196" fill="none" xmlns="http://www.w3.org/2000/svg">
<g opacity="0.2">
<path d="M160 15.0824L138 3L116 15.0824M160 15.0824L138 27.1649M160 15.0824V39.0394L138 51M116 15.0824L138 27.1649M116 15.0824L116 39.0394L138 51M138 27.1649V51" stroke="#3D90E3"/>
<path d="M65 31L81 22" stroke="#3D90E3" stroke-linecap="round"/>
<path d="M61 24L77 15" stroke="#3D90E3" stroke-linecap="round"/>
<path d="M55 21L71 12" stroke="#3D90E3" stroke-linecap="round"/>
<path d="M49 18L65 9" stroke="#3D90E3" stroke-linecap="round"/>
<path d="M65 37L81 28" stroke="#3D90E3" stroke-linecap="round"/>
<path d="M65 43L81 34" stroke="#3D90E3" stroke-linecap="round"/>
<path d="M60 31L44 22" stroke="#3D90E3" stroke-linecap="round"/>
<path d="M60 37L44 28" stroke="#3D90E3" stroke-linecap="round"/>
<path d="M60 43L44 34" stroke="#3D90E3" stroke-linecap="round"/>
<path d="M388 18.0824L366 6L344 18.0824M388 18.0824L366 30.1649M388 18.0824V42.0394L366 54M344 18.0824L366 30.1649M344 18.0824L344 42.0394L366 54M366 30.1649V54" stroke="#3D90E3"/>
<path d="M293 34L309 25" stroke="#3D90E3" stroke-linecap="round"/>
<path d="M289 27L305 18" stroke="#3D90E3" stroke-linecap="round"/>
<path d="M283 24L299 15" stroke="#3D90E3" stroke-linecap="round"/>
<path d="M277 21L293 12" stroke="#3D90E3" stroke-linecap="round"/>
<path d="M293 40L309 31" stroke="#3D90E3" stroke-linecap="round"/>
<path d="M293 46L309 37" stroke="#3D90E3" stroke-linecap="round"/>
<path d="M288 34L272 25" stroke="#3D90E3" stroke-linecap="round"/>
<path d="M288 40L272 31" stroke="#3D90E3" stroke-linecap="round"/>
<path d="M288 46L272 37" stroke="#3D90E3" stroke-linecap="round"/>
<path d="M616 15.0824L594 3L572 15.0824M616 15.0824L594 27.1649M616 15.0824V39.0394L594 51M572 15.0824L594 27.1649M572 15.0824L572 39.0394L594 51M594 27.1649V51" stroke="#3D90E3"/>
<path d="M521 31L537 22" stroke="#3D90E3" stroke-linecap="round"/>
<path d="M517 24L533 15" stroke="#3D90E3" stroke-linecap="round"/>
<path d="M511 21L527 12" stroke="#3D90E3" stroke-linecap="round"/>
<path d="M505 18L521 9" stroke="#3D90E3" stroke-linecap="round"/>
<path d="M521 37L537 28" stroke="#3D90E3" stroke-linecap="round"/>
<path d="M521 43L537 34" stroke="#3D90E3" stroke-linecap="round"/>
<path d="M516 31L500 22" stroke="#3D90E3" stroke-linecap="round"/>
<path d="M516 37L500 28" stroke="#3D90E3" stroke-linecap="round"/>
<path d="M516 43L500 34" stroke="#3D90E3" stroke-linecap="round"/>
<path d="M844 18.0824L822 6L800 18.0824M844 18.0824L822 30.1649M844 18.0824V42.0394L822 54M800 18.0824L822 30.1649M800 18.0824L800 42.0394L822 54M822 30.1649V54" stroke="#3D90E3"/>
<path d="M749 34L765 25" stroke="#3D90E3" stroke-linecap="round"/>
<path d="M745 27L761 18" stroke="#3D90E3" stroke-linecap="round"/>
<path d="M739 24L755 15" stroke="#3D90E3" stroke-linecap="round"/>
<path d="M733 21L749 12" stroke="#3D90E3" stroke-linecap="round"/>
<path d="M749 40L765 31" stroke="#3D90E3" stroke-linecap="round"/>
<path d="M749 46L765 37" stroke="#3D90E3" stroke-linecap="round"/>
<path d="M744 34L728 25" stroke="#3D90E3" stroke-linecap="round"/>
<path d="M744 40L728 31" stroke="#3D90E3" stroke-linecap="round"/>
<path d="M744 46L728 37" stroke="#3D90E3" stroke-linecap="round"/>
<path d="M1072 15.0824L1050 3L1028 15.0824M1072 15.0824L1050 27.1649M1072 15.0824V39.0394L1050 51M1028 15.0824L1050 27.1649M1028 15.0824L1028 39.0394L1050 51M1050 27.1649V51" stroke="#3D90E3"/>
<path d="M977 31L993 22" stroke="#3D90E3" stroke-linecap="round"/>
<path d="M973 24L989 15" stroke="#3D90E3" stroke-linecap="round"/>
<path d="M967 21L983 12" stroke="#3D90E3" stroke-linecap="round"/>
<path d="M961 18L977 9" stroke="#3D90E3" stroke-linecap="round"/>
<path d="M977 37L993 28" stroke="#3D90E3" stroke-linecap="round"/>
<path d="M977 43L993 34" stroke="#3D90E3" stroke-linecap="round"/>
<path d="M972 31L956 22" stroke="#3D90E3" stroke-linecap="round"/>
<path d="M972 37L956 28" stroke="#3D90E3" stroke-linecap="round"/>
<path d="M972 43L956 34" stroke="#3D90E3" stroke-linecap="round"/>
<path d="M1300 18.0824L1278 6L1256 18.0824M1300 18.0824L1278 30.1649M1300 18.0824V42.0394L1278 54M1256 18.0824L1278 30.1649M1256 18.0824L1256 42.0394L1278 54M1278 30.1649V54" stroke="#3D90E3"/>
<path d="M1205 34L1221 25" stroke="#3D90E3" stroke-linecap="round"/>
<path d="M1201 27L1217 18" stroke="#3D90E3" stroke-linecap="round"/>
<path d="M1195 24L1211 15" stroke="#3D90E3" stroke-linecap="round"/>
<path d="M1189 21L1205 12" stroke="#3D90E3" stroke-linecap="round"/>
<path d="M1205 40L1221 31" stroke="#3D90E3" stroke-linecap="round"/>
<path d="M1205 46L1221 37" stroke="#3D90E3" stroke-linecap="round"/>
<path d="M1200 34L1184 25" stroke="#3D90E3" stroke-linecap="round"/>
<path d="M1200 40L1184 31" stroke="#3D90E3" stroke-linecap="round"/>
<path d="M1200 46L1184 37" stroke="#3D90E3" stroke-linecap="round"/>
<path d="M1528 18.0824L1506 6L1484 18.0824M1528 18.0824L1506 30.1649M1528 18.0824V42.0394L1506 54M1484 18.0824L1506 30.1649M1484 18.0824L1484 42.0394L1506 54M1506 30.1649V54" stroke="#3D90E3"/>
<path d="M1433 34L1449 25" stroke="#3D90E3" stroke-linecap="round"/>
<path d="M1429 27L1445 18" stroke="#3D90E3" stroke-linecap="round"/>
<path d="M1423 24L1439 15" stroke="#3D90E3" stroke-linecap="round"/>
<path d="M1417 21L1433 12" stroke="#3D90E3" stroke-linecap="round"/>
<path d="M1433 40L1449 31" stroke="#3D90E3" stroke-linecap="round"/>
<path d="M1433 46L1449 37" stroke="#3D90E3" stroke-linecap="round"/>
<path d="M1428 34L1412 25" stroke="#3D90E3" stroke-linecap="round"/>
<path d="M1428 40L1412 31" stroke="#3D90E3" stroke-linecap="round"/>
<path d="M1428 46L1412 37" stroke="#3D90E3" stroke-linecap="round"/>
<path d="M46 156.082L24 144L2 156.082M46 156.082L24 168.165M46 156.082V180.039L24 192M2 156.082L24 168.165M2 156.082L2 180.039L24 192M24 168.165V192" stroke="#3D90E3"/>
<path d="M46 63.0824L24 51L2 63.0824M46 63.0824L24 75.1649M46 63.0824V87.0394L24 99M2 63.0824L24 75.1649M2 63.0824L2 87.0394L24 99M24 75.1649V99" stroke="#3D90E3"/>
<path d="M96.4805 160.128V152.832H100.493C101.101 152.832 102.317 153.197 102.317 154.656" stroke="#3D90E3"/>
<path d="M102.317 158.304V164.141C102.317 164.749 101.953 165.965 100.493 165.965C99.0342 165.965 97.2101 165.965 96.4805 165.965V164.141" stroke="#3D90E3"/>
<path d="M99.0342 156.48H103.777C104.506 156.48 105.966 156.918 105.966 158.669C105.966 159.545 105.966 160.493 105.966 160.858C105.966 161.344 105.674 162.317 104.506 162.317" stroke="#3D90E3"/>
<path d="M100.493 162.317C97.9394 162.317 92.832 162.317 92.832 162.317V156.48C93.3184 156.48 94.6561 156.48 94.6561 156.48" stroke="#3D90E3"/>
<circle cx="99.5" cy="159.5" r="12.5" stroke="#3D90E3"/>
<path fill-rule="evenodd" clip-rule="evenodd" d="M115.409 163.892C115.318 164.222 115.218 164.547 115.107 164.867L120.961 168.083L100 179.595L79.0387 168.083L84.058 165.326C83.9388 165.01 83.8291 164.69 83.7291 164.366L77.7593 167.644L77.5 167.787L77.5 168.083L77.5 179.039V179.337L77.7612 179.479L99.7612 191.439L100 191.569L100.239 191.439L122.239 179.479L122.5 179.337V179.039V168.083V167.787L122.241 167.644L115.409 163.892ZM100.5 180.461L121.5 168.928V178.742L100.5 190.159V180.461ZM99.5 180.461V190.159L78.5 178.742L78.5 168.928L99.5 180.461Z" fill="#3D90E3"/>
<path d="M85 177L98 184.068" stroke="#3D90E3" stroke-linecap="round"/>
<path d="M81 175L82 175.5" stroke="#3D90E3" stroke-linecap="round"/>
<path d="M160 111.082L138 99L116 111.082M160 111.082L138 123.165M160 111.082V135.039L138 147M116 111.082L138 123.165M116 111.082L116 135.039L138 147M138 123.165V147" stroke="#3D90E3"/>
<path d="M65 127L81 118" stroke="#3D90E3" stroke-linecap="round"/>
<path d="M61 120L77 111" stroke="#3D90E3" stroke-linecap="round"/>
<path d="M55 117L71 108" stroke="#3D90E3" stroke-linecap="round"/>
<path d="M49 114L65 105" stroke="#3D90E3" stroke-linecap="round"/>
<path d="M65 133L81 124" stroke="#3D90E3" stroke-linecap="round"/>
<path d="M65 139L81 130" stroke="#3D90E3" stroke-linecap="round"/>
<path d="M60 127L44 118" stroke="#3D90E3" stroke-linecap="round"/>
<path d="M60 133L44 124" stroke="#3D90E3" stroke-linecap="round"/>
<path d="M60 139L44 130" stroke="#3D90E3" stroke-linecap="round"/>
<path d="M96.4805 67.1281V59.8319H100.493C101.101 59.8319 102.317 60.1967 102.317 61.656" stroke="#3D90E3"/>
<path d="M102.317 65.3042V71.1412C102.317 71.7492 101.953 72.9652 100.493 72.9652C99.0342 72.9652 97.2101 72.9652 96.4805 72.9652V71.1412" stroke="#3D90E3"/>
<path d="M99.0342 63.4801H103.777C104.506 63.4801 105.966 63.9179 105.966 65.669C105.966 66.5445 105.966 67.493 105.966 67.8578C105.966 68.3443 105.674 69.3171 104.506 69.3171" stroke="#3D90E3"/>
<path d="M100.493 69.3171C97.9394 69.3171 92.832 69.3171 92.832 69.3171V63.4801C93.3184 63.4801 94.6561 63.4801 94.6561 63.4801" stroke="#3D90E3"/>
<circle cx="99.5" cy="66.5" r="12.5" stroke="#3D90E3"/>
<path fill-rule="evenodd" clip-rule="evenodd" d="M115.409 70.8923C115.318 71.2216 115.218 71.5468 115.107 71.8675L120.961 75.0825L100 86.5945L79.0387 75.0825L84.058 72.3259C83.9388 72.0103 83.8291 71.6901 83.7291 71.3656L77.7593 74.6443L77.5 74.7867L77.5 75.0825L77.5 86.0395V86.3368L77.7612 86.4788L99.7612 98.4393L100 98.5692L100.239 98.4393L122.239 86.4788L122.5 86.3368V86.0395V75.0825V74.7867L122.241 74.6443L115.409 70.8923ZM100.5 87.4608L121.5 75.9276V85.7422L100.5 97.1591V87.4608ZM99.5 87.4608V97.1591L78.5 85.7422L78.5 75.9276L99.5 87.4608Z" fill="#3D90E3"/>
<path d="M85 84L98 91.0676" stroke="#3D90E3" stroke-linecap="round"/>
<path d="M81 82L82 82.5" stroke="#3D90E3" stroke-linecap="round"/>
<path d="M274 159.082L252 147L230 159.082M274 159.082L252 171.165M274 159.082V183.039L252 195M230 159.082L252 171.165M230 159.082L230 183.039L252 195M252 171.165V195" stroke="#3D90E3"/>
<path d="M179 175L195 166" stroke="#3D90E3" stroke-linecap="round"/>
<path d="M175 168L191 159" stroke="#3D90E3" stroke-linecap="round"/>
<path d="M169 165L185 156" stroke="#3D90E3" stroke-linecap="round"/>
<path d="M163 162L179 153" stroke="#3D90E3" stroke-linecap="round"/>
<path d="M179 181L195 172" stroke="#3D90E3" stroke-linecap="round"/>
<path d="M179 187L195 178" stroke="#3D90E3" stroke-linecap="round"/>
<path d="M174 175L158 166" stroke="#3D90E3" stroke-linecap="round"/>
<path d="M174 181L158 172" stroke="#3D90E3" stroke-linecap="round"/>
<path d="M174 187L158 178" stroke="#3D90E3" stroke-linecap="round"/>
<path d="M210.48 115.128V107.832H214.493C215.101 107.832 216.317 108.197 216.317 109.656" stroke="#3D90E3"/>
<path d="M216.317 113.304V119.141C216.317 119.749 215.953 120.965 214.493 120.965C213.034 120.965 211.21 120.965 210.48 120.965V119.141" stroke="#3D90E3"/>
<path d="M213.034 111.48H217.777C218.506 111.48 219.966 111.918 219.966 113.669C219.966 114.545 219.966 115.493 219.966 115.858C219.966 116.344 219.674 117.317 218.506 117.317" stroke="#3D90E3"/>
<path d="M214.493 117.317C211.939 117.317 206.832 117.317 206.832 117.317V111.48C207.318 111.48 208.656 111.48 208.656 111.48" stroke="#3D90E3"/>
<circle cx="213.5" cy="114.5" r="12.5" stroke="#3D90E3"/>
<path fill-rule="evenodd" clip-rule="evenodd" d="M229.409 118.892C229.318 119.222 229.218 119.547 229.107 119.867L234.961 123.083L214 134.595L193.039 123.083L198.058 120.326C197.939 120.01 197.829 119.69 197.729 119.366L191.759 122.644L191.5 122.787L191.5 123.083L191.5 134.039V134.337L191.761 134.479L213.761 146.439L214 146.569L214.239 146.439L236.239 134.479L236.5 134.337V134.039V123.083V122.787L236.241 122.644L229.409 118.892ZM214.5 135.461L235.5 123.928V133.742L214.5 145.159V135.461ZM213.5 135.461V145.159L192.5 133.742L192.5 123.928L213.5 135.461Z" fill="#3D90E3"/>
<path d="M199 132L212 139.068" stroke="#3D90E3" stroke-linecap="round"/>
<path d="M195 130L196 130.5" stroke="#3D90E3" stroke-linecap="round"/>
<path d="M274 65.0824L252 53L230 65.0824M274 65.0824L252 77.1649M274 65.0824V89.0394L252 101M230 65.0824L252 77.1649M230 65.0824L230 89.0394L252 101M252 77.1649V101" stroke="#3D90E3"/>
<path d="M179 81L195 72" stroke="#3D90E3" stroke-linecap="round"/>
<path d="M175 74L191 65" stroke="#3D90E3" stroke-linecap="round"/>
<path d="M169 71L185 62" stroke="#3D90E3" stroke-linecap="round"/>
<path d="M163 68L179 59" stroke="#3D90E3" stroke-linecap="round"/>
<path d="M179 87L195 78" stroke="#3D90E3" stroke-linecap="round"/>
<path d="M179 93L195 84" stroke="#3D90E3" stroke-linecap="round"/>
<path d="M174 81L158 72" stroke="#3D90E3" stroke-linecap="round"/>
<path d="M174 87L158 78" stroke="#3D90E3" stroke-linecap="round"/>
<path d="M174 93L158 84" stroke="#3D90E3" stroke-linecap="round"/>
<path d="M324.48 163.128V155.832H328.493C329.101 155.832 330.317 156.197 330.317 157.656" stroke="#3D90E3"/>
<path d="M330.317 161.304V167.141C330.317 167.749 329.953 168.965 328.493 168.965C327.034 168.965 325.21 168.965 324.48 168.965V167.141" stroke="#3D90E3"/>
<path d="M327.034 159.48H331.777C332.506 159.48 333.966 159.918 333.966 161.669C333.966 162.545 333.966 163.493 333.966 163.858C333.966 164.344 333.674 165.317 332.506 165.317" stroke="#3D90E3"/>
<path d="M328.493 165.317C325.939 165.317 320.832 165.317 320.832 165.317V159.48C321.318 159.48 322.656 159.48 322.656 159.48" stroke="#3D90E3"/>
<circle cx="327.5" cy="162.5" r="12.5" stroke="#3D90E3"/>
<path fill-rule="evenodd" clip-rule="evenodd" d="M343.409 166.892C343.318 167.222 343.218 167.547 343.107 167.867L348.961 171.083L328 182.595L307.039 171.083L312.058 168.326C311.939 168.01 311.829 167.69 311.729 167.366L305.759 170.644L305.5 170.787L305.5 171.083L305.5 182.039V182.337L305.761 182.479L327.761 194.439L328 194.569L328.239 194.439L350.239 182.479L350.5 182.337V182.039V171.083V170.787L350.241 170.644L343.409 166.892ZM328.5 183.461L349.5 171.928V181.742L328.5 193.159V183.461ZM327.5 183.461V193.159L306.5 181.742L306.5 171.928L327.5 183.461Z" fill="#3D90E3"/>
<path d="M313 180L326 187.068" stroke="#3D90E3" stroke-linecap="round"/>
<path d="M309 178L310 178.5" stroke="#3D90E3" stroke-linecap="round"/>
<path d="M388 111.082L366 99L344 111.082M388 111.082L366 123.165M388 111.082V135.039L366 147M344 111.082L366 123.165M344 111.082L344 135.039L366 147M366 123.165V147" stroke="#3D90E3"/>
<path d="M293 127L309 118" stroke="#3D90E3" stroke-linecap="round"/>
<path d="M289 120L305 111" stroke="#3D90E3" stroke-linecap="round"/>
<path d="M283 117L299 108" stroke="#3D90E3" stroke-linecap="round"/>
<path d="M277 114L293 105" stroke="#3D90E3" stroke-linecap="round"/>
<path d="M293 133L309 124" stroke="#3D90E3" stroke-linecap="round"/>
<path d="M293 139L309 130" stroke="#3D90E3" stroke-linecap="round"/>
<path d="M288 127L272 118" stroke="#3D90E3" stroke-linecap="round"/>
<path d="M288 133L272 124" stroke="#3D90E3" stroke-linecap="round"/>
<path d="M288 139L272 130" stroke="#3D90E3" stroke-linecap="round"/>
<path d="M324.48 67.1281V59.8319H328.493C329.101 59.8319 330.317 60.1967 330.317 61.656" stroke="#3D90E3"/>
<path d="M330.317 65.3042V71.1412C330.317 71.7492 329.953 72.9652 328.493 72.9652C327.034 72.9652 325.21 72.9652 324.48 72.9652V71.1412" stroke="#3D90E3"/>
<path d="M327.034 63.4801H331.777C332.506 63.4801 333.966 63.9179 333.966 65.669C333.966 66.5445 333.966 67.493 333.966 67.8578C333.966 68.3443 333.674 69.3171 332.506 69.3171" stroke="#3D90E3"/>
<path d="M328.493 69.3171C325.939 69.3171 320.832 69.3171 320.832 69.3171V63.4801C321.318 63.4801 322.656 63.4801 322.656 63.4801" stroke="#3D90E3"/>
<circle cx="327.5" cy="66.5" r="12.5" stroke="#3D90E3"/>
<path fill-rule="evenodd" clip-rule="evenodd" d="M343.409 70.8923C343.318 71.2216 343.218 71.5468 343.107 71.8675L348.961 75.0825L328 86.5945L307.039 75.0825L312.058 72.3259C311.939 72.0103 311.829 71.6901 311.729 71.3656L305.759 74.6443L305.5 74.7867L305.5 75.0825L305.5 86.0395V86.3368L305.761 86.4788L327.761 98.4393L328 98.5692L328.239 98.4393L350.239 86.4788L350.5 86.3368V86.0395V75.0825V74.7867L350.241 74.6443L343.409 70.8923ZM328.5 87.4608L349.5 75.9276V85.7422L328.5 97.1591V87.4608ZM327.5 87.4608V97.1591L306.5 85.7422L306.5 75.9276L327.5 87.4608Z" fill="#3D90E3"/>
<path d="M313 84L326 91.0676" stroke="#3D90E3" stroke-linecap="round"/>
<path d="M309 82L310 82.5" stroke="#3D90E3" stroke-linecap="round"/>
<path d="M502 156.082L480 144L458 156.082M502 156.082L480 168.165M502 156.082V180.039L480 192M458 156.082L480 168.165M458 156.082L458 180.039L480 192M480 168.165V192" stroke="#3D90E3"/>
<path d="M407 172L423 163" stroke="#3D90E3" stroke-linecap="round"/>
<path d="M403 165L419 156" stroke="#3D90E3" stroke-linecap="round"/>
<path d="M397 162L413 153" stroke="#3D90E3" stroke-linecap="round"/>
<path d="M391 159L407 150" stroke="#3D90E3" stroke-linecap="round"/>
<path d="M407 178L423 169" stroke="#3D90E3" stroke-linecap="round"/>
<path d="M407 184L423 175" stroke="#3D90E3" stroke-linecap="round"/>
<path d="M402 172L386 163" stroke="#3D90E3" stroke-linecap="round"/>
<path d="M402 178L386 169" stroke="#3D90E3" stroke-linecap="round"/>
<path d="M402 184L386 175" stroke="#3D90E3" stroke-linecap="round"/>
<path d="M438.48 112.128V104.832H442.493C443.101 104.832 444.317 105.197 444.317 106.656" stroke="#3D90E3"/>
<path d="M444.317 110.304V116.141C444.317 116.749 443.953 117.965 442.493 117.965C441.034 117.965 439.21 117.965 438.48 117.965V116.141" stroke="#3D90E3"/>
<path d="M441.034 108.48H445.777C446.506 108.48 447.966 108.918 447.966 110.669C447.966 111.545 447.966 112.493 447.966 112.858C447.966 113.344 447.674 114.317 446.506 114.317" stroke="#3D90E3"/>
<path d="M442.493 114.317C439.939 114.317 434.832 114.317 434.832 114.317V108.48C435.318 108.48 436.656 108.48 436.656 108.48" stroke="#3D90E3"/>
<circle cx="441.5" cy="111.5" r="12.5" stroke="#3D90E3"/>
<path fill-rule="evenodd" clip-rule="evenodd" d="M457.409 115.892C457.318 116.222 457.218 116.547 457.107 116.867L462.961 120.083L442 131.595L421.039 120.083L426.058 117.326C425.939 117.01 425.829 116.69 425.729 116.366L419.759 119.644L419.5 119.787L419.5 120.083L419.5 131.039V131.337L419.761 131.479L441.761 143.439L442 143.569L442.239 143.439L464.239 131.479L464.5 131.337V131.039V120.083V119.787L464.241 119.644L457.409 115.892ZM442.5 132.461L463.5 120.928V130.742L442.5 142.159V132.461ZM441.5 132.461V142.159L420.5 130.742L420.5 120.928L441.5 132.461Z" fill="#3D90E3"/>
<path d="M427 129L440 136.068" stroke="#3D90E3" stroke-linecap="round"/>
<path d="M423 127L424 127.5" stroke="#3D90E3" stroke-linecap="round"/>
<path d="M502 63.0824L480 51L458 63.0824M502 63.0824L480 75.1649M502 63.0824V87.0394L480 99M458 63.0824L480 75.1649M458 63.0824L458 87.0394L480 99M480 75.1649V99" stroke="#3D90E3"/>
<path d="M407 79L423 70" stroke="#3D90E3" stroke-linecap="round"/>
<path d="M403 72L419 63" stroke="#3D90E3" stroke-linecap="round"/>
<path d="M397 69L413 60" stroke="#3D90E3" stroke-linecap="round"/>
<path d="M391 66L407 57" stroke="#3D90E3" stroke-linecap="round"/>
<path d="M407 85L423 76" stroke="#3D90E3" stroke-linecap="round"/>
<path d="M407 91L423 82" stroke="#3D90E3" stroke-linecap="round"/>
<path d="M402 79L386 70" stroke="#3D90E3" stroke-linecap="round"/>
<path d="M402 85L386 76" stroke="#3D90E3" stroke-linecap="round"/>
<path d="M402 91L386 82" stroke="#3D90E3" stroke-linecap="round"/>
<path d="M552.48 160.128V152.832H556.493C557.101 152.832 558.317 153.197 558.317 154.656" stroke="#3D90E3"/>
<path d="M558.317 158.304V164.141C558.317 164.749 557.953 165.965 556.493 165.965C555.034 165.965 553.21 165.965 552.48 165.965V164.141" stroke="#3D90E3"/>
<path d="M555.034 156.48H559.777C560.506 156.48 561.966 156.918 561.966 158.669C561.966 159.545 561.966 160.493 561.966 160.858C561.966 161.344 561.674 162.317 560.506 162.317" stroke="#3D90E3"/>
<path d="M556.493 162.317C553.939 162.317 548.832 162.317 548.832 162.317V156.48C549.318 156.48 550.656 156.48 550.656 156.48" stroke="#3D90E3"/>
<circle cx="555.5" cy="159.5" r="12.5" stroke="#3D90E3"/>
<path fill-rule="evenodd" clip-rule="evenodd" d="M571.409 163.892C571.318 164.222 571.218 164.547 571.107 164.867L576.961 168.083L556 179.595L535.039 168.083L540.058 165.326C539.939 165.01 539.829 164.69 539.729 164.366L533.759 167.644L533.5 167.787L533.5 168.083L533.5 179.039V179.337L533.761 179.479L555.761 191.439L556 191.569L556.239 191.439L578.239 179.479L578.5 179.337V179.039V168.083V167.787L578.241 167.644L571.409 163.892ZM556.5 180.461L577.5 168.928V178.742L556.5 190.159V180.461ZM555.5 180.461V190.159L534.5 178.742L534.5 168.928L555.5 180.461Z" fill="#3D90E3"/>
<path d="M541 177L554 184.068" stroke="#3D90E3" stroke-linecap="round"/>
<path d="M537 175L538 175.5" stroke="#3D90E3" stroke-linecap="round"/>
<path d="M616 111.082L594 99L572 111.082M616 111.082L594 123.165M616 111.082V135.039L594 147M572 111.082L594 123.165M572 111.082L572 135.039L594 147M594 123.165V147" stroke="#3D90E3"/>
<path d="M521 127L537 118" stroke="#3D90E3" stroke-linecap="round"/>
<path d="M517 120L533 111" stroke="#3D90E3" stroke-linecap="round"/>
<path d="M511 117L527 108" stroke="#3D90E3" stroke-linecap="round"/>
<path d="M505 114L521 105" stroke="#3D90E3" stroke-linecap="round"/>
<path d="M521 133L537 124" stroke="#3D90E3" stroke-linecap="round"/>
<path d="M521 139L537 130" stroke="#3D90E3" stroke-linecap="round"/>
<path d="M516 127L500 118" stroke="#3D90E3" stroke-linecap="round"/>
<path d="M516 133L500 124" stroke="#3D90E3" stroke-linecap="round"/>
<path d="M516 139L500 130" stroke="#3D90E3" stroke-linecap="round"/>
<path d="M552.48 67.1281V59.8319H556.493C557.101 59.8319 558.317 60.1967 558.317 61.656" stroke="#3D90E3"/>
<path d="M558.317 65.3042V71.1412C558.317 71.7492 557.953 72.9652 556.493 72.9652C555.034 72.9652 553.21 72.9652 552.48 72.9652V71.1412" stroke="#3D90E3"/>
<path d="M555.034 63.4801H559.777C560.506 63.4801 561.966 63.9179 561.966 65.669C561.966 66.5445 561.966 67.493 561.966 67.8578C561.966 68.3443 561.674 69.3171 560.506 69.3171" stroke="#3D90E3"/>
<path d="M556.493 69.3171C553.939 69.3171 548.832 69.3171 548.832 69.3171V63.4801C549.318 63.4801 550.656 63.4801 550.656 63.4801" stroke="#3D90E3"/>
<circle cx="555.5" cy="66.5" r="12.5" stroke="#3D90E3"/>
<path fill-rule="evenodd" clip-rule="evenodd" d="M571.409 70.8923C571.318 71.2216 571.218 71.5468 571.107 71.8675L576.961 75.0825L556 86.5945L535.039 75.0825L540.058 72.3259C539.939 72.0103 539.829 71.6901 539.729 71.3656L533.759 74.6443L533.5 74.7867L533.5 75.0825L533.5 86.0395V86.3368L533.761 86.4788L555.761 98.4393L556 98.5692L556.239 98.4393L578.239 86.4788L578.5 86.3368V86.0395V75.0825V74.7867L578.241 74.6443L571.409 70.8923ZM556.5 87.4608L577.5 75.9276V85.7422L556.5 97.1591V87.4608ZM555.5 87.4608V97.1591L534.5 85.7422L534.5 75.9276L555.5 87.4608Z" fill="#3D90E3"/>
<path d="M541 84L554 91.0676" stroke="#3D90E3" stroke-linecap="round"/>
<path d="M537 82L538 82.5" stroke="#3D90E3" stroke-linecap="round"/>
<path d="M730 159.082L708 147L686 159.082M730 159.082L708 171.165M730 159.082V183.039L708 195M686 159.082L708 171.165M686 159.082L686 183.039L708 195M708 171.165V195" stroke="#3D90E3"/>
<path d="M635 175L651 166" stroke="#3D90E3" stroke-linecap="round"/>
<path d="M631 168L647 159" stroke="#3D90E3" stroke-linecap="round"/>
<path d="M625 165L641 156" stroke="#3D90E3" stroke-linecap="round"/>
<path d="M619 162L635 153" stroke="#3D90E3" stroke-linecap="round"/>
<path d="M635 181L651 172" stroke="#3D90E3" stroke-linecap="round"/>
<path d="M635 187L651 178" stroke="#3D90E3" stroke-linecap="round"/>
<path d="M630 175L614 166" stroke="#3D90E3" stroke-linecap="round"/>
<path d="M630 181L614 172" stroke="#3D90E3" stroke-linecap="round"/>
<path d="M630 187L614 178" stroke="#3D90E3" stroke-linecap="round"/>
<path d="M666.48 115.128V107.832H670.493C671.101 107.832 672.317 108.197 672.317 109.656" stroke="#3D90E3"/>
<path d="M672.317 113.304V119.141C672.317 119.749 671.953 120.965 670.493 120.965C669.034 120.965 667.21 120.965 666.48 120.965V119.141" stroke="#3D90E3"/>
<path d="M669.034 111.48H673.777C674.506 111.48 675.966 111.918 675.966 113.669C675.966 114.545 675.966 115.493 675.966 115.858C675.966 116.344 675.674 117.317 674.506 117.317" stroke="#3D90E3"/>
<path d="M670.493 117.317C667.939 117.317 662.832 117.317 662.832 117.317V111.48C663.318 111.48 664.656 111.48 664.656 111.48" stroke="#3D90E3"/>
<circle cx="669.5" cy="114.5" r="12.5" stroke="#3D90E3"/>
<path fill-rule="evenodd" clip-rule="evenodd" d="M685.409 118.892C685.318 119.222 685.218 119.547 685.107 119.867L690.961 123.083L670 134.595L649.039 123.083L654.058 120.326C653.939 120.01 653.829 119.69 653.729 119.366L647.759 122.644L647.5 122.787L647.5 123.083L647.5 134.039V134.337L647.761 134.479L669.761 146.439L670 146.569L670.239 146.439L692.239 134.479L692.5 134.337V134.039V123.083V122.787L692.241 122.644L685.409 118.892ZM670.5 135.461L691.5 123.928V133.742L670.5 145.159V135.461ZM669.5 135.461V145.159L648.5 133.742L648.5 123.928L669.5 135.461Z" fill="#3D90E3"/>
<path d="M655 132L668 139.068" stroke="#3D90E3" stroke-linecap="round"/>
<path d="M651 130L652 130.5" stroke="#3D90E3" stroke-linecap="round"/>
<path d="M730 65.0824L708 53L686 65.0824M730 65.0824L708 77.1649M730 65.0824V89.0394L708 101M686 65.0824L708 77.1649M686 65.0824L686 89.0394L708 101M708 77.1649V101" stroke="#3D90E3"/>
<path d="M635 81L651 72" stroke="#3D90E3" stroke-linecap="round"/>
<path d="M631 74L647 65" stroke="#3D90E3" stroke-linecap="round"/>
<path d="M625 71L641 62" stroke="#3D90E3" stroke-linecap="round"/>
<path d="M619 68L635 59" stroke="#3D90E3" stroke-linecap="round"/>
<path d="M635 87L651 78" stroke="#3D90E3" stroke-linecap="round"/>
<path d="M635 93L651 84" stroke="#3D90E3" stroke-linecap="round"/>
<path d="M630 81L614 72" stroke="#3D90E3" stroke-linecap="round"/>
<path d="M630 87L614 78" stroke="#3D90E3" stroke-linecap="round"/>
<path d="M630 93L614 84" stroke="#3D90E3" stroke-linecap="round"/>
<path d="M780.48 163.128V155.832H784.493C785.101 155.832 786.317 156.197 786.317 157.656" stroke="#3D90E3"/>
<path d="M786.317 161.304V167.141C786.317 167.749 785.953 168.965 784.493 168.965C783.034 168.965 781.21 168.965 780.48 168.965V167.141" stroke="#3D90E3"/>
<path d="M783.034 159.48H787.777C788.506 159.48 789.966 159.918 789.966 161.669C789.966 162.545 789.966 163.493 789.966 163.858C789.966 164.344 789.674 165.317 788.506 165.317" stroke="#3D90E3"/>
<path d="M784.493 165.317C781.939 165.317 776.832 165.317 776.832 165.317V159.48C777.318 159.48 778.656 159.48 778.656 159.48" stroke="#3D90E3"/>
<circle cx="783.5" cy="162.5" r="12.5" stroke="#3D90E3"/>
<path fill-rule="evenodd" clip-rule="evenodd" d="M799.409 166.892C799.318 167.222 799.218 167.547 799.107 167.867L804.961 171.083L784 182.595L763.039 171.083L768.058 168.326C767.939 168.01 767.829 167.69 767.729 167.366L761.759 170.644L761.5 170.787L761.5 171.083L761.5 182.039V182.337L761.761 182.479L783.761 194.439L784 194.569L784.239 194.439L806.239 182.479L806.5 182.337V182.039V171.083V170.787L806.241 170.644L799.409 166.892ZM784.5 183.461L805.5 171.928V181.742L784.5 193.159V183.461ZM783.5 183.461V193.159L762.5 181.742L762.5 171.928L783.5 183.461Z" fill="#3D90E3"/>
<path d="M769 180L782 187.068" stroke="#3D90E3" stroke-linecap="round"/>
<path d="M765 178L766 178.5" stroke="#3D90E3" stroke-linecap="round"/>
<path d="M844 111.082L822 99L800 111.082M844 111.082L822 123.165M844 111.082V135.039L822 147M800 111.082L822 123.165M800 111.082L800 135.039L822 147M822 123.165V147" stroke="#3D90E3"/>
<path d="M749 127L765 118" stroke="#3D90E3" stroke-linecap="round"/>
<path d="M745 120L761 111" stroke="#3D90E3" stroke-linecap="round"/>
<path d="M739 117L755 108" stroke="#3D90E3" stroke-linecap="round"/>
<path d="M733 114L749 105" stroke="#3D90E3" stroke-linecap="round"/>
<path d="M749 133L765 124" stroke="#3D90E3" stroke-linecap="round"/>
<path d="M749 139L765 130" stroke="#3D90E3" stroke-linecap="round"/>
<path d="M744 127L728 118" stroke="#3D90E3" stroke-linecap="round"/>
<path d="M744 133L728 124" stroke="#3D90E3" stroke-linecap="round"/>
<path d="M744 139L728 130" stroke="#3D90E3" stroke-linecap="round"/>
<path d="M780.48 67.1281V59.8319H784.493C785.101 59.8319 786.317 60.1967 786.317 61.656" stroke="#3D90E3"/>
<path d="M786.317 65.3042V71.1412C786.317 71.7492 785.953 72.9652 784.493 72.9652C783.034 72.9652 781.21 72.9652 780.48 72.9652V71.1412" stroke="#3D90E3"/>
<path d="M783.034 63.4801H787.777C788.506 63.4801 789.966 63.9179 789.966 65.669C789.966 66.5445 789.966 67.493 789.966 67.8578C789.966 68.3443 789.674 69.3171 788.506 69.3171" stroke="#3D90E3"/>
<path d="M784.493 69.3171C781.939 69.3171 776.832 69.3171 776.832 69.3171V63.4801C777.318 63.4801 778.656 63.4801 778.656 63.4801" stroke="#3D90E3"/>
<circle cx="783.5" cy="66.5" r="12.5" stroke="#3D90E3"/>
<path fill-rule="evenodd" clip-rule="evenodd" d="M799.409 70.8923C799.318 71.2216 799.218 71.5468 799.107 71.8675L804.961 75.0825L784 86.5945L763.039 75.0825L768.058 72.3259C767.939 72.0103 767.829 71.6901 767.729 71.3656L761.759 74.6443L761.5 74.7867L761.5 75.0825L761.5 86.0395V86.3368L761.761 86.4788L783.761 98.4393L784 98.5692L784.239 98.4393L806.239 86.4788L806.5 86.3368V86.0395V75.0825V74.7867L806.241 74.6443L799.409 70.8923ZM784.5 87.4608L805.5 75.9276V85.7422L784.5 97.1591V87.4608ZM783.5 87.4608V97.1591L762.5 85.7422L762.5 75.9276L783.5 87.4608Z" fill="#3D90E3"/>
<path d="M769 84L782 91.0676" stroke="#3D90E3" stroke-linecap="round"/>
<path d="M765 82L766 82.5" stroke="#3D90E3" stroke-linecap="round"/>
<path d="M958 156.082L936 144L914 156.082M958 156.082L936 168.165M958 156.082V180.039L936 192M914 156.082L936 168.165M914 156.082L914 180.039L936 192M936 168.165V192" stroke="#3D90E3"/>
<path d="M863 172L879 163" stroke="#3D90E3" stroke-linecap="round"/>
<path d="M859 165L875 156" stroke="#3D90E3" stroke-linecap="round"/>
<path d="M853 162L869 153" stroke="#3D90E3" stroke-linecap="round"/>
<path d="M847 159L863 150" stroke="#3D90E3" stroke-linecap="round"/>
<path d="M863 178L879 169" stroke="#3D90E3" stroke-linecap="round"/>
<path d="M863 184L879 175" stroke="#3D90E3" stroke-linecap="round"/>
<path d="M858 172L842 163" stroke="#3D90E3" stroke-linecap="round"/>
<path d="M858 178L842 169" stroke="#3D90E3" stroke-linecap="round"/>
<path d="M858 184L842 175" stroke="#3D90E3" stroke-linecap="round"/>
<path d="M894.48 112.128V104.832H898.493C899.101 104.832 900.317 105.197 900.317 106.656" stroke="#3D90E3"/>
<path d="M900.317 110.304V116.141C900.317 116.749 899.953 117.965 898.493 117.965C897.034 117.965 895.21 117.965 894.48 117.965V116.141" stroke="#3D90E3"/>
<path d="M897.034 108.48H901.777C902.506 108.48 903.966 108.918 903.966 110.669C903.966 111.545 903.966 112.493 903.966 112.858C903.966 113.344 903.674 114.317 902.506 114.317" stroke="#3D90E3"/>
<path d="M898.493 114.317C895.939 114.317 890.832 114.317 890.832 114.317V108.48C891.318 108.48 892.656 108.48 892.656 108.48" stroke="#3D90E3"/>
<circle cx="897.5" cy="111.5" r="12.5" stroke="#3D90E3"/>
<path fill-rule="evenodd" clip-rule="evenodd" d="M913.409 115.892C913.318 116.222 913.218 116.547 913.107 116.867L918.961 120.083L898 131.595L877.039 120.083L882.058 117.326C881.939 117.01 881.829 116.69 881.729 116.366L875.759 119.644L875.5 119.787L875.5 120.083L875.5 131.039V131.337L875.761 131.479L897.761 143.439L898 143.569L898.239 143.439L920.239 131.479L920.5 131.337V131.039V120.083V119.787L920.241 119.644L913.409 115.892ZM898.5 132.461L919.5 120.928V130.742L898.5 142.159V132.461ZM897.5 132.461V142.159L876.5 130.742L876.5 120.928L897.5 132.461Z" fill="#3D90E3"/>
<path d="M883 129L896 136.068" stroke="#3D90E3" stroke-linecap="round"/>
<path d="M879 127L880 127.5" stroke="#3D90E3" stroke-linecap="round"/>
<path d="M958 63.0824L936 51L914 63.0824M958 63.0824L936 75.1649M958 63.0824V87.0394L936 99M914 63.0824L936 75.1649M914 63.0824L914 87.0394L936 99M936 75.1649V99" stroke="#3D90E3"/>
<path d="M863 79L879 70" stroke="#3D90E3" stroke-linecap="round"/>
<path d="M859 72L875 63" stroke="#3D90E3" stroke-linecap="round"/>
<path d="M853 69L869 60" stroke="#3D90E3" stroke-linecap="round"/>
<path d="M847 66L863 57" stroke="#3D90E3" stroke-linecap="round"/>
<path d="M863 85L879 76" stroke="#3D90E3" stroke-linecap="round"/>
<path d="M863 91L879 82" stroke="#3D90E3" stroke-linecap="round"/>
<path d="M858 79L842 70" stroke="#3D90E3" stroke-linecap="round"/>
<path d="M858 85L842 76" stroke="#3D90E3" stroke-linecap="round"/>
<path d="M858 91L842 82" stroke="#3D90E3" stroke-linecap="round"/>
<path d="M1008.48 160.128V152.832H1012.49C1013.1 152.832 1014.32 153.197 1014.32 154.656" stroke="#3D90E3"/>
<path d="M1014.32 158.304V164.141C1014.32 164.749 1013.95 165.965 1012.49 165.965C1011.03 165.965 1009.21 165.965 1008.48 165.965V164.141" stroke="#3D90E3"/>
<path d="M1011.03 156.48H1015.78C1016.51 156.48 1017.97 156.918 1017.97 158.669C1017.97 159.545 1017.97 160.493 1017.97 160.858C1017.97 161.344 1017.67 162.317 1016.51 162.317" stroke="#3D90E3"/>
<path d="M1012.49 162.317C1009.94 162.317 1004.83 162.317 1004.83 162.317V156.48C1005.32 156.48 1006.66 156.48 1006.66 156.48" stroke="#3D90E3"/>
<circle cx="1011.5" cy="159.5" r="12.5" stroke="#3D90E3"/>
<path fill-rule="evenodd" clip-rule="evenodd" d="M1027.41 163.892C1027.32 164.222 1027.22 164.547 1027.11 164.867L1032.96 168.083L1012 179.595L991.039 168.083L996.058 165.326C995.939 165.01 995.829 164.69 995.729 164.366L989.759 167.644L989.5 167.787L989.5 168.083L989.5 179.039V179.337L989.761 179.479L1011.76 191.439L1012 191.569L1012.24 191.439L1034.24 179.479L1034.5 179.337V179.039V168.083V167.787L1034.24 167.644L1027.41 163.892ZM1012.5 180.461L1033.5 168.928V178.742L1012.5 190.159V180.461ZM1011.5 180.461V190.159L990.5 178.742L990.5 168.928L1011.5 180.461Z" fill="#3D90E3"/>
<path d="M997 177L1010 184.068" stroke="#3D90E3" stroke-linecap="round"/>
<path d="M993 175L994 175.5" stroke="#3D90E3" stroke-linecap="round"/>
<path d="M1072 111.082L1050 99L1028 111.082M1072 111.082L1050 123.165M1072 111.082V135.039L1050 147M1028 111.082L1050 123.165M1028 111.082L1028 135.039L1050 147M1050 123.165V147" stroke="#3D90E3"/>
<path d="M977 127L993 118" stroke="#3D90E3" stroke-linecap="round"/>
<path d="M973 120L989 111" stroke="#3D90E3" stroke-linecap="round"/>
<path d="M967 117L983 108" stroke="#3D90E3" stroke-linecap="round"/>
<path d="M961 114L977 105" stroke="#3D90E3" stroke-linecap="round"/>
<path d="M977 133L993 124" stroke="#3D90E3" stroke-linecap="round"/>
<path d="M977 139L993 130" stroke="#3D90E3" stroke-linecap="round"/>
<path d="M972 127L956 118" stroke="#3D90E3" stroke-linecap="round"/>
<path d="M972 133L956 124" stroke="#3D90E3" stroke-linecap="round"/>
<path d="M972 139L956 130" stroke="#3D90E3" stroke-linecap="round"/>
<path d="M1008.48 67.1281V59.8319H1012.49C1013.1 59.8319 1014.32 60.1967 1014.32 61.656" stroke="#3D90E3"/>
<path d="M1014.32 65.3042V71.1412C1014.32 71.7492 1013.95 72.9652 1012.49 72.9652C1011.03 72.9652 1009.21 72.9652 1008.48 72.9652V71.1412" stroke="#3D90E3"/>
<path d="M1011.03 63.4801H1015.78C1016.51 63.4801 1017.97 63.9179 1017.97 65.669C1017.97 66.5445 1017.97 67.493 1017.97 67.8578C1017.97 68.3443 1017.67 69.3171 1016.51 69.3171" stroke="#3D90E3"/>
<path d="M1012.49 69.3171C1009.94 69.3171 1004.83 69.3171 1004.83 69.3171V63.4801C1005.32 63.4801 1006.66 63.4801 1006.66 63.4801" stroke="#3D90E3"/>
<circle cx="1011.5" cy="66.5" r="12.5" stroke="#3D90E3"/>
<path fill-rule="evenodd" clip-rule="evenodd" d="M1027.41 70.8923C1027.32 71.2216 1027.22 71.5468 1027.11 71.8675L1032.96 75.0825L1012 86.5945L991.039 75.0825L996.058 72.3259C995.939 72.0103 995.829 71.6901 995.729 71.3656L989.759 74.6443L989.5 74.7867L989.5 75.0825L989.5 86.0395V86.3368L989.761 86.4788L1011.76 98.4393L1012 98.5692L1012.24 98.4393L1034.24 86.4788L1034.5 86.3368V86.0395V75.0825V74.7867L1034.24 74.6443L1027.41 70.8923ZM1012.5 87.4608L1033.5 75.9276V85.7422L1012.5 97.1591V87.4608ZM1011.5 87.4608V97.1591L990.5 85.7422L990.5 75.9276L1011.5 87.4608Z" fill="#3D90E3"/>
<path d="M997 84L1010 91.0676" stroke="#3D90E3" stroke-linecap="round"/>
<path d="M993 82L994 82.5" stroke="#3D90E3" stroke-linecap="round"/>
<path d="M1186 159.082L1164 147L1142 159.082M1186 159.082L1164 171.165M1186 159.082V183.039L1164 195M1142 159.082L1164 171.165M1142 159.082L1142 183.039L1164 195M1164 171.165V195" stroke="#3D90E3"/>
<path d="M1091 175L1107 166" stroke="#3D90E3" stroke-linecap="round"/>
<path d="M1087 168L1103 159" stroke="#3D90E3" stroke-linecap="round"/>
<path d="M1081 165L1097 156" stroke="#3D90E3" stroke-linecap="round"/>
<path d="M1075 162L1091 153" stroke="#3D90E3" stroke-linecap="round"/>
<path d="M1091 181L1107 172" stroke="#3D90E3" stroke-linecap="round"/>
<path d="M1091 187L1107 178" stroke="#3D90E3" stroke-linecap="round"/>
<path d="M1086 175L1070 166" stroke="#3D90E3" stroke-linecap="round"/>
<path d="M1086 181L1070 172" stroke="#3D90E3" stroke-linecap="round"/>
<path d="M1086 187L1070 178" stroke="#3D90E3" stroke-linecap="round"/>
<path d="M1122.48 115.128V107.832H1126.49C1127.1 107.832 1128.32 108.197 1128.32 109.656" stroke="#3D90E3"/>
<path d="M1128.32 113.304V119.141C1128.32 119.749 1127.95 120.965 1126.49 120.965C1125.03 120.965 1123.21 120.965 1122.48 120.965V119.141" stroke="#3D90E3"/>
<path d="M1125.03 111.48H1129.78C1130.51 111.48 1131.97 111.918 1131.97 113.669C1131.97 114.545 1131.97 115.493 1131.97 115.858C1131.97 116.344 1131.67 117.317 1130.51 117.317" stroke="#3D90E3"/>
<path d="M1126.49 117.317C1123.94 117.317 1118.83 117.317 1118.83 117.317V111.48C1119.32 111.48 1120.66 111.48 1120.66 111.48" stroke="#3D90E3"/>
<circle cx="1125.5" cy="114.5" r="12.5" stroke="#3D90E3"/>
<path fill-rule="evenodd" clip-rule="evenodd" d="M1141.41 118.892C1141.32 119.222 1141.22 119.547 1141.11 119.867L1146.96 123.083L1126 134.595L1105.04 123.083L1110.06 120.326C1109.94 120.01 1109.83 119.69 1109.73 119.366L1103.76 122.644L1103.5 122.787L1103.5 123.083L1103.5 134.039V134.337L1103.76 134.479L1125.76 146.439L1126 146.569L1126.24 146.439L1148.24 134.479L1148.5 134.337V134.039V123.083V122.787L1148.24 122.644L1141.41 118.892ZM1126.5 135.461L1147.5 123.928V133.742L1126.5 145.159V135.461ZM1125.5 135.461V145.159L1104.5 133.742L1104.5 123.928L1125.5 135.461Z" fill="#3D90E3"/>
<path d="M1111 132L1124 139.068" stroke="#3D90E3" stroke-linecap="round"/>
<path d="M1107 130L1108 130.5" stroke="#3D90E3" stroke-linecap="round"/>
<path d="M1186 65.0824L1164 53L1142 65.0824M1186 65.0824L1164 77.1649M1186 65.0824V89.0394L1164 101M1142 65.0824L1164 77.1649M1142 65.0824L1142 89.0394L1164 101M1164 77.1649V101" stroke="#3D90E3"/>
<path d="M1091 81L1107 72" stroke="#3D90E3" stroke-linecap="round"/>
<path d="M1087 74L1103 65" stroke="#3D90E3" stroke-linecap="round"/>
<path d="M1081 71L1097 62" stroke="#3D90E3" stroke-linecap="round"/>
<path d="M1075 68L1091 59" stroke="#3D90E3" stroke-linecap="round"/>
<path d="M1091 87L1107 78" stroke="#3D90E3" stroke-linecap="round"/>
<path d="M1091 93L1107 84" stroke="#3D90E3" stroke-linecap="round"/>
<path d="M1086 81L1070 72" stroke="#3D90E3" stroke-linecap="round"/>
<path d="M1086 87L1070 78" stroke="#3D90E3" stroke-linecap="round"/>
<path d="M1086 93L1070 84" stroke="#3D90E3" stroke-linecap="round"/>
<path d="M1236.48 163.128V155.832H1240.49C1241.1 155.832 1242.32 156.197 1242.32 157.656" stroke="#3D90E3"/>
<path d="M1242.32 161.304V167.141C1242.32 167.749 1241.95 168.965 1240.49 168.965C1239.03 168.965 1237.21 168.965 1236.48 168.965V167.141" stroke="#3D90E3"/>
<path d="M1239.03 159.48H1243.78C1244.51 159.48 1245.97 159.918 1245.97 161.669C1245.97 162.545 1245.97 163.493 1245.97 163.858C1245.97 164.344 1245.67 165.317 1244.51 165.317" stroke="#3D90E3"/>
<path d="M1240.49 165.317C1237.94 165.317 1232.83 165.317 1232.83 165.317V159.48C1233.32 159.48 1234.66 159.48 1234.66 159.48" stroke="#3D90E3"/>
<circle cx="1239.5" cy="162.5" r="12.5" stroke="#3D90E3"/>
<path fill-rule="evenodd" clip-rule="evenodd" d="M1255.41 166.892C1255.32 167.222 1255.22 167.547 1255.11 167.867L1260.96 171.083L1240 182.595L1219.04 171.083L1224.06 168.326C1223.94 168.01 1223.83 167.69 1223.73 167.366L1217.76 170.644L1217.5 170.787L1217.5 171.083L1217.5 182.039V182.337L1217.76 182.479L1239.76 194.439L1240 194.569L1240.24 194.439L1262.24 182.479L1262.5 182.337V182.039V171.083V170.787L1262.24 170.644L1255.41 166.892ZM1240.5 183.461L1261.5 171.928V181.742L1240.5 193.159V183.461ZM1239.5 183.461V193.159L1218.5 181.742L1218.5 171.928L1239.5 183.461Z" fill="#3D90E3"/>
<path d="M1225 180L1238 187.068" stroke="#3D90E3" stroke-linecap="round"/>
<path d="M1221 178L1222 178.5" stroke="#3D90E3" stroke-linecap="round"/>
<path d="M1300 111.082L1278 99L1256 111.082M1300 111.082L1278 123.165M1300 111.082V135.039L1278 147M1256 111.082L1278 123.165M1256 111.082L1256 135.039L1278 147M1278 123.165V147" stroke="#3D90E3"/>
<path d="M1205 127L1221 118" stroke="#3D90E3" stroke-linecap="round"/>
<path d="M1201 120L1217 111" stroke="#3D90E3" stroke-linecap="round"/>
<path d="M1195 117L1211 108" stroke="#3D90E3" stroke-linecap="round"/>
<path d="M1189 114L1205 105" stroke="#3D90E3" stroke-linecap="round"/>
<path d="M1205 133L1221 124" stroke="#3D90E3" stroke-linecap="round"/>
<path d="M1205 139L1221 130" stroke="#3D90E3" stroke-linecap="round"/>
<path d="M1200 127L1184 118" stroke="#3D90E3" stroke-linecap="round"/>
<path d="M1200 133L1184 124" stroke="#3D90E3" stroke-linecap="round"/>
<path d="M1200 139L1184 130" stroke="#3D90E3" stroke-linecap="round"/>
<path d="M1236.48 67.1281V59.8319H1240.49C1241.1 59.8319 1242.32 60.1967 1242.32 61.656" stroke="#3D90E3"/>
<path d="M1242.32 65.3042V71.1412C1242.32 71.7492 1241.95 72.9652 1240.49 72.9652C1239.03 72.9652 1237.21 72.9652 1236.48 72.9652V71.1412" stroke="#3D90E3"/>
<path d="M1239.03 63.4801H1243.78C1244.51 63.4801 1245.97 63.9179 1245.97 65.669C1245.97 66.5445 1245.97 67.493 1245.97 67.8578C1245.97 68.3443 1245.67 69.3171 1244.51 69.3171" stroke="#3D90E3"/>
<path d="M1240.49 69.3171C1237.94 69.3171 1232.83 69.3171 1232.83 69.3171V63.4801C1233.32 63.4801 1234.66 63.4801 1234.66 63.4801" stroke="#3D90E3"/>
<circle cx="1239.5" cy="66.5" r="12.5" stroke="#3D90E3"/>
<path fill-rule="evenodd" clip-rule="evenodd" d="M1255.41 70.8923C1255.32 71.2216 1255.22 71.5468 1255.11 71.8675L1260.96 75.0825L1240 86.5945L1219.04 75.0825L1224.06 72.3259C1223.94 72.0103 1223.83 71.6901 1223.73 71.3656L1217.76 74.6443L1217.5 74.7867L1217.5 75.0825L1217.5 86.0395V86.3368L1217.76 86.4788L1239.76 98.4393L1240 98.5692L1240.24 98.4393L1262.24 86.4788L1262.5 86.3368V86.0395V75.0825V74.7867L1262.24 74.6443L1255.41 70.8923ZM1240.5 87.4608L1261.5 75.9276V85.7422L1240.5 97.1591V87.4608ZM1239.5 87.4608V97.1591L1218.5 85.7422L1218.5 75.9276L1239.5 87.4608Z" fill="#3D90E3"/>
<path d="M1225 84L1238 91.0676" stroke="#3D90E3" stroke-linecap="round"/>
<path d="M1221 82L1222 82.5" stroke="#3D90E3" stroke-linecap="round"/>
<path d="M1414 159.082L1392 147L1370 159.082M1414 159.082L1392 171.165M1414 159.082V183.039L1392 195M1370 159.082L1392 171.165M1370 159.082L1370 183.039L1392 195M1392 171.165V195" stroke="#3D90E3"/>
<path d="M1319 175L1335 166" stroke="#3D90E3" stroke-linecap="round"/>
<path d="M1315 168L1331 159" stroke="#3D90E3" stroke-linecap="round"/>
<path d="M1309 165L1325 156" stroke="#3D90E3" stroke-linecap="round"/>
<path d="M1303 162L1319 153" stroke="#3D90E3" stroke-linecap="round"/>
<path d="M1319 181L1335 172" stroke="#3D90E3" stroke-linecap="round"/>
<path d="M1319 187L1335 178" stroke="#3D90E3" stroke-linecap="round"/>
<path d="M1314 175L1298 166" stroke="#3D90E3" stroke-linecap="round"/>
<path d="M1314 181L1298 172" stroke="#3D90E3" stroke-linecap="round"/>
<path d="M1314 187L1298 178" stroke="#3D90E3" stroke-linecap="round"/>
<path d="M1350.48 115.128V107.832H1354.49C1355.1 107.832 1356.32 108.197 1356.32 109.656" stroke="#3D90E3"/>
<path d="M1356.32 113.304V119.141C1356.32 119.749 1355.95 120.965 1354.49 120.965C1353.03 120.965 1351.21 120.965 1350.48 120.965V119.141" stroke="#3D90E3"/>
<path d="M1353.03 111.48H1357.78C1358.51 111.48 1359.97 111.918 1359.97 113.669C1359.97 114.545 1359.97 115.493 1359.97 115.858C1359.97 116.344 1359.67 117.317 1358.51 117.317" stroke="#3D90E3"/>
<path d="M1354.49 117.317C1351.94 117.317 1346.83 117.317 1346.83 117.317V111.48C1347.32 111.48 1348.66 111.48 1348.66 111.48" stroke="#3D90E3"/>
<circle cx="1353.5" cy="114.5" r="12.5" stroke="#3D90E3"/>
<path fill-rule="evenodd" clip-rule="evenodd" d="M1369.41 118.892C1369.32 119.222 1369.22 119.547 1369.11 119.867L1374.96 123.083L1354 134.595L1333.04 123.083L1338.06 120.326C1337.94 120.01 1337.83 119.69 1337.73 119.366L1331.76 122.644L1331.5 122.787L1331.5 123.083L1331.5 134.039V134.337L1331.76 134.479L1353.76 146.439L1354 146.569L1354.24 146.439L1376.24 134.479L1376.5 134.337V134.039V123.083V122.787L1376.24 122.644L1369.41 118.892ZM1354.5 135.461L1375.5 123.928V133.742L1354.5 145.159V135.461ZM1353.5 135.461V145.159L1332.5 133.742L1332.5 123.928L1353.5 135.461Z" fill="#3D90E3"/>
<path d="M1339 132L1352 139.068" stroke="#3D90E3" stroke-linecap="round"/>
<path d="M1335 130L1336 130.5" stroke="#3D90E3" stroke-linecap="round"/>
<path d="M1414 65.0824L1392 53L1370 65.0824M1414 65.0824L1392 77.1649M1414 65.0824V89.0394L1392 101M1370 65.0824L1392 77.1649M1370 65.0824L1370 89.0394L1392 101M1392 77.1649V101" stroke="#3D90E3"/>
<path d="M1319 81L1335 72" stroke="#3D90E3" stroke-linecap="round"/>
<path d="M1315 74L1331 65" stroke="#3D90E3" stroke-linecap="round"/>
<path d="M1309 71L1325 62" stroke="#3D90E3" stroke-linecap="round"/>
<path d="M1303 68L1319 59" stroke="#3D90E3" stroke-linecap="round"/>
<path d="M1319 87L1335 78" stroke="#3D90E3" stroke-linecap="round"/>
<path d="M1319 93L1335 84" stroke="#3D90E3" stroke-linecap="round"/>
<path d="M1314 81L1298 72" stroke="#3D90E3" stroke-linecap="round"/>
<path d="M1314 87L1298 78" stroke="#3D90E3" stroke-linecap="round"/>
<path d="M1314 93L1298 84" stroke="#3D90E3" stroke-linecap="round"/>
<path d="M1464.48 163.128V155.832H1468.49C1469.1 155.832 1470.32 156.197 1470.32 157.656" stroke="#3D90E3"/>
<path d="M1470.32 161.304V167.141C1470.32 167.749 1469.95 168.965 1468.49 168.965C1467.03 168.965 1465.21 168.965 1464.48 168.965V167.141" stroke="#3D90E3"/>
<path d="M1467.03 159.48H1471.78C1472.51 159.48 1473.97 159.918 1473.97 161.669C1473.97 162.545 1473.97 163.493 1473.97 163.858C1473.97 164.344 1473.67 165.317 1472.51 165.317" stroke="#3D90E3"/>
<path d="M1468.49 165.317C1465.94 165.317 1460.83 165.317 1460.83 165.317V159.48C1461.32 159.48 1462.66 159.48 1462.66 159.48" stroke="#3D90E3"/>
<circle cx="1467.5" cy="162.5" r="12.5" stroke="#3D90E3"/>
<path fill-rule="evenodd" clip-rule="evenodd" d="M1483.41 166.892C1483.32 167.222 1483.22 167.547 1483.11 167.867L1488.96 171.083L1468 182.595L1447.04 171.083L1452.06 168.326C1451.94 168.01 1451.83 167.69 1451.73 167.366L1445.76 170.644L1445.5 170.787L1445.5 171.083L1445.5 182.039V182.337L1445.76 182.479L1467.76 194.439L1468 194.569L1468.24 194.439L1490.24 182.479L1490.5 182.337V182.039V171.083V170.787L1490.24 170.644L1483.41 166.892ZM1468.5 183.461L1489.5 171.928V181.742L1468.5 193.159V183.461ZM1467.5 183.461V193.159L1446.5 181.742L1446.5 171.928L1467.5 183.461Z" fill="#3D90E3"/>
<path d="M1453 180L1466 187.068" stroke="#3D90E3" stroke-linecap="round"/>
<path d="M1449 178L1450 178.5" stroke="#3D90E3" stroke-linecap="round"/>
<path d="M1528 111.082L1506 99L1484 111.082M1528 111.082L1506 123.165M1528 111.082V135.039L1506 147M1484 111.082L1506 123.165M1484 111.082L1484 135.039L1506 147M1506 123.165V147" stroke="#3D90E3"/>
<path d="M1433 127L1449 118" stroke="#3D90E3" stroke-linecap="round"/>
<path d="M1429 120L1445 111" stroke="#3D90E3" stroke-linecap="round"/>
<path d="M1423 117L1439 108" stroke="#3D90E3" stroke-linecap="round"/>
<path d="M1417 114L1433 105" stroke="#3D90E3" stroke-linecap="round"/>
<path d="M1433 133L1449 124" stroke="#3D90E3" stroke-linecap="round"/>
<path d="M1433 139L1449 130" stroke="#3D90E3" stroke-linecap="round"/>
<path d="M1428 127L1412 118" stroke="#3D90E3" stroke-linecap="round"/>
<path d="M1428 133L1412 124" stroke="#3D90E3" stroke-linecap="round"/>
<path d="M1428 139L1412 130" stroke="#3D90E3" stroke-linecap="round"/>
<path d="M1464.48 67.1281V59.8319H1468.49C1469.1 59.8319 1470.32 60.1967 1470.32 61.656" stroke="#3D90E3"/>
<path d="M1470.32 65.3042V71.1412C1470.32 71.7492 1469.95 72.9652 1468.49 72.9652C1467.03 72.9652 1465.21 72.9652 1464.48 72.9652V71.1412" stroke="#3D90E3"/>
<path d="M1467.03 63.4801H1471.78C1472.51 63.4801 1473.97 63.9179 1473.97 65.669C1473.97 66.5445 1473.97 67.493 1473.97 67.8578C1473.97 68.3443 1473.67 69.3171 1472.51 69.3171" stroke="#3D90E3"/>
<path d="M1468.49 69.3171C1465.94 69.3171 1460.83 69.3171 1460.83 69.3171V63.4801C1461.32 63.4801 1462.66 63.4801 1462.66 63.4801" stroke="#3D90E3"/>
<circle cx="1467.5" cy="66.5" r="12.5" stroke="#3D90E3"/>
<path fill-rule="evenodd" clip-rule="evenodd" d="M1483.41 70.8923C1483.32 71.2216 1483.22 71.5468 1483.11 71.8675L1488.96 75.0825L1468 86.5945L1447.04 75.0825L1452.06 72.3259C1451.94 72.0103 1451.83 71.6901 1451.73 71.3656L1445.76 74.6443L1445.5 74.7867L1445.5 75.0825L1445.5 86.0395V86.3368L1445.76 86.4788L1467.76 98.4393L1468 98.5692L1468.24 98.4393L1490.24 86.4788L1490.5 86.3368V86.0395V75.0825V74.7867L1490.24 74.6443L1483.41 70.8923ZM1468.5 87.4608L1489.5 75.9276V85.7422L1468.5 97.1591V87.4608ZM1467.5 87.4608V97.1591L1446.5 85.7422L1446.5 75.9276L1467.5 87.4608Z" fill="#3D90E3"/>
<path d="M1453 84L1466 91.0676" stroke="#3D90E3" stroke-linecap="round"/>
<path d="M1449 82L1450 82.5" stroke="#3D90E3" stroke-linecap="round"/>
<path d="M1756 18.0824L1734 6L1712 18.0824M1756 18.0824L1734 30.1649M1756 18.0824V42.0394L1734 54M1712 18.0824L1734 30.1649M1712 18.0824L1712 42.0394L1734 54M1734 30.1649V54" stroke="#3D90E3"/>
<path d="M1661 34L1677 25" stroke="#3D90E3" stroke-linecap="round"/>
<path d="M1657 27L1673 18" stroke="#3D90E3" stroke-linecap="round"/>
<path d="M1651 24L1667 15" stroke="#3D90E3" stroke-linecap="round"/>
<path d="M1645 21L1661 12" stroke="#3D90E3" stroke-linecap="round"/>
<path d="M1661 40L1677 31" stroke="#3D90E3" stroke-linecap="round"/>
<path d="M1661 46L1677 37" stroke="#3D90E3" stroke-linecap="round"/>
<path d="M1656 34L1640 25" stroke="#3D90E3" stroke-linecap="round"/>
<path d="M1656 40L1640 31" stroke="#3D90E3" stroke-linecap="round"/>
<path d="M1656 46L1640 37" stroke="#3D90E3" stroke-linecap="round"/>
<path d="M1642 159.082L1620 147L1598 159.082M1642 159.082L1620 171.165M1642 159.082V183.039L1620 195M1598 159.082L1620 171.165M1598 159.082L1598 183.039L1620 195M1620 171.165V195" stroke="#3D90E3"/>
<path d="M1547 175L1563 166" stroke="#3D90E3" stroke-linecap="round"/>
<path d="M1543 168L1559 159" stroke="#3D90E3" stroke-linecap="round"/>
<path d="M1537 165L1553 156" stroke="#3D90E3" stroke-linecap="round"/>
<path d="M1531 162L1547 153" stroke="#3D90E3" stroke-linecap="round"/>
<path d="M1547 181L1563 172" stroke="#3D90E3" stroke-linecap="round"/>
<path d="M1547 187L1563 178" stroke="#3D90E3" stroke-linecap="round"/>
<path d="M1542 175L1526 166" stroke="#3D90E3" stroke-linecap="round"/>
<path d="M1542 181L1526 172" stroke="#3D90E3" stroke-linecap="round"/>
<path d="M1542 187L1526 178" stroke="#3D90E3" stroke-linecap="round"/>
<path d="M1578.48 115.128V107.832H1582.49C1583.1 107.832 1584.32 108.197 1584.32 109.656" stroke="#3D90E3"/>
<path d="M1584.32 113.304V119.141C1584.32 119.749 1583.95 120.965 1582.49 120.965C1581.03 120.965 1579.21 120.965 1578.48 120.965V119.141" stroke="#3D90E3"/>
<path d="M1581.03 111.48H1585.78C1586.51 111.48 1587.97 111.918 1587.97 113.669C1587.97 114.545 1587.97 115.493 1587.97 115.858C1587.97 116.344 1587.67 117.317 1586.51 117.317" stroke="#3D90E3"/>
<path d="M1582.49 117.317C1579.94 117.317 1574.83 117.317 1574.83 117.317V111.48C1575.32 111.48 1576.66 111.48 1576.66 111.48" stroke="#3D90E3"/>
<circle cx="1581.5" cy="114.5" r="12.5" stroke="#3D90E3"/>
<path fill-rule="evenodd" clip-rule="evenodd" d="M1597.41 118.892C1597.32 119.222 1597.22 119.547 1597.11 119.867L1602.96 123.083L1582 134.595L1561.04 123.083L1566.06 120.326C1565.94 120.01 1565.83 119.69 1565.73 119.366L1559.76 122.644L1559.5 122.787L1559.5 123.083L1559.5 134.039V134.337L1559.76 134.479L1581.76 146.439L1582 146.569L1582.24 146.439L1604.24 134.479L1604.5 134.337V134.039V123.083V122.787L1604.24 122.644L1597.41 118.892ZM1582.5 135.461L1603.5 123.928V133.742L1582.5 145.159V135.461ZM1581.5 135.461V145.159L1560.5 133.742L1560.5 123.928L1581.5 135.461Z" fill="#3D90E3"/>
<path d="M1567 132L1580 139.068" stroke="#3D90E3" stroke-linecap="round"/>
<path d="M1563 130L1564 130.5" stroke="#3D90E3" stroke-linecap="round"/>
<path d="M1642 65.0824L1620 53L1598 65.0824M1642 65.0824L1620 77.1649M1642 65.0824V89.0394L1620 101M1598 65.0824L1620 77.1649M1598 65.0824L1598 89.0394L1620 101M1620 77.1649V101" stroke="#3D90E3"/>
<path d="M1547 81L1563 72" stroke="#3D90E3" stroke-linecap="round"/>
<path d="M1543 74L1559 65" stroke="#3D90E3" stroke-linecap="round"/>
<path d="M1537 71L1553 62" stroke="#3D90E3" stroke-linecap="round"/>
<path d="M1531 68L1547 59" stroke="#3D90E3" stroke-linecap="round"/>
<path d="M1547 87L1563 78" stroke="#3D90E3" stroke-linecap="round"/>
<path d="M1547 93L1563 84" stroke="#3D90E3" stroke-linecap="round"/>
<path d="M1542 81L1526 72" stroke="#3D90E3" stroke-linecap="round"/>
<path d="M1542 87L1526 78" stroke="#3D90E3" stroke-linecap="round"/>
<path d="M1542 93L1526 84" stroke="#3D90E3" stroke-linecap="round"/>
<path d="M1692.48 163.128V155.832H1696.49C1697.1 155.832 1698.32 156.197 1698.32 157.656" stroke="#3D90E3"/>
<path d="M1698.32 161.304V167.141C1698.32 167.749 1697.95 168.965 1696.49 168.965C1695.03 168.965 1693.21 168.965 1692.48 168.965V167.141" stroke="#3D90E3"/>
<path d="M1695.03 159.48H1699.78C1700.51 159.48 1701.97 159.918 1701.97 161.669C1701.97 162.545 1701.97 163.493 1701.97 163.858C1701.97 164.344 1701.67 165.317 1700.51 165.317" stroke="#3D90E3"/>
<path d="M1696.49 165.317C1693.94 165.317 1688.83 165.317 1688.83 165.317V159.48C1689.32 159.48 1690.66 159.48 1690.66 159.48" stroke="#3D90E3"/>
<circle cx="1695.5" cy="162.5" r="12.5" stroke="#3D90E3"/>
<path fill-rule="evenodd" clip-rule="evenodd" d="M1711.41 166.892C1711.32 167.222 1711.22 167.547 1711.11 167.867L1716.96 171.083L1696 182.595L1675.04 171.083L1680.06 168.326C1679.94 168.01 1679.83 167.69 1679.73 167.366L1673.76 170.644L1673.5 170.787L1673.5 171.083L1673.5 182.039V182.337L1673.76 182.479L1695.76 194.439L1696 194.569L1696.24 194.439L1718.24 182.479L1718.5 182.337V182.039V171.083V170.787L1718.24 170.644L1711.41 166.892ZM1696.5 183.461L1717.5 171.928V181.742L1696.5 193.159V183.461ZM1695.5 183.461V193.159L1674.5 181.742L1674.5 171.928L1695.5 183.461Z" fill="#3D90E3"/>
<path d="M1681 180L1694 187.068" stroke="#3D90E3" stroke-linecap="round"/>
<path d="M1677 178L1678 178.5" stroke="#3D90E3" stroke-linecap="round"/>
<path d="M1756 111.082L1734 99L1712 111.082M1756 111.082L1734 123.165M1756 111.082V135.039L1734 147M1712 111.082L1734 123.165M1712 111.082L1712 135.039L1734 147M1734 123.165V147" stroke="#3D90E3"/>
<path d="M1661 127L1677 118" stroke="#3D90E3" stroke-linecap="round"/>
<path d="M1657 120L1673 111" stroke="#3D90E3" stroke-linecap="round"/>
<path d="M1651 117L1667 108" stroke="#3D90E3" stroke-linecap="round"/>
<path d="M1645 114L1661 105" stroke="#3D90E3" stroke-linecap="round"/>
<path d="M1661 133L1677 124" stroke="#3D90E3" stroke-linecap="round"/>
<path d="M1661 139L1677 130" stroke="#3D90E3" stroke-linecap="round"/>
<path d="M1656 127L1640 118" stroke="#3D90E3" stroke-linecap="round"/>
<path d="M1656 133L1640 124" stroke="#3D90E3" stroke-linecap="round"/>
<path d="M1656 139L1640 130" stroke="#3D90E3" stroke-linecap="round"/>
<path d="M1692.48 67.1281V59.8319H1696.49C1697.1 59.8319 1698.32 60.1967 1698.32 61.656" stroke="#3D90E3"/>
<path d="M1698.32 65.3042V71.1412C1698.32 71.7492 1697.95 72.9652 1696.49 72.9652C1695.03 72.9652 1693.21 72.9652 1692.48 72.9652V71.1412" stroke="#3D90E3"/>
<path d="M1695.03 63.4801H1699.78C1700.51 63.4801 1701.97 63.9179 1701.97 65.669C1701.97 66.5445 1701.97 67.493 1701.97 67.8578C1701.97 68.3443 1701.67 69.3171 1700.51 69.3171" stroke="#3D90E3"/>
<path d="M1696.49 69.3171C1693.94 69.3171 1688.83 69.3171 1688.83 69.3171V63.4801C1689.32 63.4801 1690.66 63.4801 1690.66 63.4801" stroke="#3D90E3"/>
<circle cx="1695.5" cy="66.5" r="12.5" stroke="#3D90E3"/>
<path fill-rule="evenodd" clip-rule="evenodd" d="M1711.41 70.8923C1711.32 71.2216 1711.22 71.5468 1711.11 71.8675L1716.96 75.0825L1696 86.5945L1675.04 75.0825L1680.06 72.3259C1679.94 72.0103 1679.83 71.6901 1679.73 71.3656L1673.76 74.6443L1673.5 74.7867L1673.5 75.0825L1673.5 86.0395V86.3368L1673.76 86.4788L1695.76 98.4393L1696 98.5692L1696.24 98.4393L1718.24 86.4788L1718.5 86.3368V86.0395V75.0825V74.7867L1718.24 74.6443L1711.41 70.8923ZM1696.5 87.4608L1717.5 75.9276V85.7422L1696.5 97.1591V87.4608ZM1695.5 87.4608V97.1591L1674.5 85.7422L1674.5 75.9276L1695.5 87.4608Z" fill="#3D90E3"/>
<path d="M1681 84L1694 91.0676" stroke="#3D90E3" stroke-linecap="round"/>
<path d="M1677 82L1678 82.5" stroke="#3D90E3" stroke-linecap="round"/>
<path d="M210.48 19.1281V11.8319H214.493C215.101 11.8319 216.317 12.1967 216.317 13.656" stroke="#3D90E3"/>
<path d="M216.317 17.3042V23.1412C216.317 23.7492 215.953 24.9652 214.493 24.9652C213.034 24.9652 211.21 24.9652 210.48 24.9652V23.1412" stroke="#3D90E3"/>
<path d="M213.034 15.4801H217.777C218.506 15.4801 219.966 15.9179 219.966 17.669C219.966 18.5445 219.966 19.493 219.966 19.8578C219.966 20.3443 219.674 21.3171 218.506 21.3171" stroke="#3D90E3"/>
<path d="M214.493 21.3171C211.939 21.3171 206.832 21.3171 206.832 21.3171V15.4801C207.318 15.4801 208.656 15.4801 208.656 15.4801" stroke="#3D90E3"/>
<circle cx="213.5" cy="18.5" r="12.5" stroke="#3D90E3"/>
<path fill-rule="evenodd" clip-rule="evenodd" d="M229.409 22.8923C229.318 23.2216 229.218 23.5468 229.107 23.8675L234.961 27.0825L214 38.5945L193.039 27.0825L198.058 24.3259C197.939 24.0103 197.829 23.6901 197.729 23.3656L191.759 26.6443L191.5 26.7867L191.5 27.0825L191.5 38.0395V38.3368L191.761 38.4788L213.761 50.4393L214 50.5692L214.239 50.4393L236.239 38.4788L236.5 38.3368V38.0395V27.0825V26.7867L236.241 26.6443L229.409 22.8923ZM214.5 39.4608L235.5 27.9276V37.7422L214.5 49.1591V39.4608ZM213.5 39.4608V49.1591L192.5 37.7422L192.5 27.9276L213.5 39.4608Z" fill="#3D90E3"/>
<path d="M199 36L212 43.0676" stroke="#3D90E3" stroke-linecap="round"/>
<path d="M195 34L196 34.5" stroke="#3D90E3" stroke-linecap="round"/>
<path d="M438.48 16.1281V8.83191H442.493C443.101 8.83191 444.317 9.19672 444.317 10.656" stroke="#3D90E3"/>
<path d="M444.317 14.3042V20.1412C444.317 20.7492 443.953 21.9652 442.493 21.9652C441.034 21.9652 439.21 21.9652 438.48 21.9652V20.1412" stroke="#3D90E3"/>
<path d="M441.034 12.4801H445.777C446.506 12.4801 447.966 12.9179 447.966 14.669C447.966 15.5445 447.966 16.493 447.966 16.8578C447.966 17.3443 447.674 18.3171 446.506 18.3171" stroke="#3D90E3"/>
<path d="M442.493 18.3171C439.939 18.3171 434.832 18.3171 434.832 18.3171V12.4801C435.318 12.4801 436.656 12.4801 436.656 12.4801" stroke="#3D90E3"/>
<circle cx="441.5" cy="15.5" r="12.5" stroke="#3D90E3"/>
<path fill-rule="evenodd" clip-rule="evenodd" d="M457.409 19.8923C457.318 20.2216 457.218 20.5468 457.107 20.8675L462.961 24.0825L442 35.5945L421.039 24.0825L426.058 21.3259C425.939 21.0103 425.829 20.6901 425.729 20.3656L419.759 23.6443L419.5 23.7867L419.5 24.0825L419.5 35.0395V35.3368L419.761 35.4788L441.761 47.4393L442 47.5692L442.239 47.4393L464.239 35.4788L464.5 35.3368V35.0395V24.0825V23.7867L464.241 23.6443L457.409 19.8923ZM442.5 36.4608L463.5 24.9276V34.7422L442.5 46.1591V36.4608ZM441.5 36.4608V46.1591L420.5 34.7422L420.5 24.9276L441.5 36.4608Z" fill="#3D90E3"/>
<path d="M427 33L440 40.0676" stroke="#3D90E3" stroke-linecap="round"/>
<path d="M423 31L424 31.5" stroke="#3D90E3" stroke-linecap="round"/>
<path d="M666.48 19.1281V11.8319H670.493C671.101 11.8319 672.317 12.1967 672.317 13.656" stroke="#3D90E3"/>
<path d="M672.317 17.3042V23.1412C672.317 23.7492 671.953 24.9652 670.493 24.9652C669.034 24.9652 667.21 24.9652 666.48 24.9652V23.1412" stroke="#3D90E3"/>
<path d="M669.034 15.4801H673.777C674.506 15.4801 675.966 15.9179 675.966 17.669C675.966 18.5445 675.966 19.493 675.966 19.8578C675.966 20.3443 675.674 21.3171 674.506 21.3171" stroke="#3D90E3"/>
<path d="M670.493 21.3171C667.939 21.3171 662.832 21.3171 662.832 21.3171V15.4801C663.318 15.4801 664.656 15.4801 664.656 15.4801" stroke="#3D90E3"/>
<circle cx="669.5" cy="18.5" r="12.5" stroke="#3D90E3"/>
<path fill-rule="evenodd" clip-rule="evenodd" d="M685.409 22.8923C685.318 23.2216 685.218 23.5468 685.107 23.8675L690.961 27.0825L670 38.5945L649.039 27.0825L654.058 24.3259C653.939 24.0103 653.829 23.6901 653.729 23.3656L647.759 26.6443L647.5 26.7867L647.5 27.0825L647.5 38.0395V38.3368L647.761 38.4788L669.761 50.4393L670 50.5692L670.239 50.4393L692.239 38.4788L692.5 38.3368V38.0395V27.0825V26.7867L692.241 26.6443L685.409 22.8923ZM670.5 39.4608L691.5 27.9276V37.7422L670.5 49.1591V39.4608ZM669.5 39.4608V49.1591L648.5 37.7422L648.5 27.9276L669.5 39.4608Z" fill="#3D90E3"/>
<path d="M655 36L668 43.0676" stroke="#3D90E3" stroke-linecap="round"/>
<path d="M651 34L652 34.5" stroke="#3D90E3" stroke-linecap="round"/>
<path d="M894.48 16.1281V8.83191H898.493C899.101 8.83191 900.317 9.19672 900.317 10.656" stroke="#3D90E3"/>
<path d="M900.317 14.3042V20.1412C900.317 20.7492 899.953 21.9652 898.493 21.9652C897.034 21.9652 895.21 21.9652 894.48 21.9652V20.1412" stroke="#3D90E3"/>
<path d="M897.034 12.4801H901.777C902.506 12.4801 903.966 12.9179 903.966 14.669C903.966 15.5445 903.966 16.493 903.966 16.8578C903.966 17.3443 903.674 18.3171 902.506 18.3171" stroke="#3D90E3"/>
<path d="M898.493 18.3171C895.939 18.3171 890.832 18.3171 890.832 18.3171V12.4801C891.318 12.4801 892.656 12.4801 892.656 12.4801" stroke="#3D90E3"/>
<circle cx="897.5" cy="15.5" r="12.5" stroke="#3D90E3"/>
<path fill-rule="evenodd" clip-rule="evenodd" d="M913.409 19.8923C913.318 20.2216 913.218 20.5468 913.107 20.8675L918.961 24.0825L898 35.5945L877.039 24.0825L882.058 21.3259C881.939 21.0103 881.829 20.6901 881.729 20.3656L875.759 23.6443L875.5 23.7867L875.5 24.0825L875.5 35.0395V35.3368L875.761 35.4788L897.761 47.4393L898 47.5692L898.239 47.4393L920.239 35.4788L920.5 35.3368V35.0395V24.0825V23.7867L920.241 23.6443L913.409 19.8923ZM898.5 36.4608L919.5 24.9276V34.7422L898.5 46.1591V36.4608ZM897.5 36.4608V46.1591L876.5 34.7422L876.5 24.9276L897.5 36.4608Z" fill="#3D90E3"/>
<path d="M883 33L896 40.0676" stroke="#3D90E3" stroke-linecap="round"/>
<path d="M879 31L880 31.5" stroke="#3D90E3" stroke-linecap="round"/>
<path d="M1122.48 19.1281V11.8319H1126.49C1127.1 11.8319 1128.32 12.1967 1128.32 13.656" stroke="#3D90E3"/>
<path d="M1128.32 17.3042V23.1412C1128.32 23.7492 1127.95 24.9652 1126.49 24.9652C1125.03 24.9652 1123.21 24.9652 1122.48 24.9652V23.1412" stroke="#3D90E3"/>
<path d="M1125.03 15.4801H1129.78C1130.51 15.4801 1131.97 15.9179 1131.97 17.669C1131.97 18.5445 1131.97 19.493 1131.97 19.8578C1131.97 20.3443 1131.67 21.3171 1130.51 21.3171" stroke="#3D90E3"/>
<path d="M1126.49 21.3171C1123.94 21.3171 1118.83 21.3171 1118.83 21.3171V15.4801C1119.32 15.4801 1120.66 15.4801 1120.66 15.4801" stroke="#3D90E3"/>
<circle cx="1125.5" cy="18.5" r="12.5" stroke="#3D90E3"/>
<path fill-rule="evenodd" clip-rule="evenodd" d="M1141.41 22.8923C1141.32 23.2216 1141.22 23.5468 1141.11 23.8675L1146.96 27.0825L1126 38.5945L1105.04 27.0825L1110.06 24.3259C1109.94 24.0103 1109.83 23.6901 1109.73 23.3656L1103.76 26.6443L1103.5 26.7867L1103.5 27.0825L1103.5 38.0395V38.3368L1103.76 38.4788L1125.76 50.4393L1126 50.5692L1126.24 50.4393L1148.24 38.4788L1148.5 38.3368V38.0395V27.0825V26.7867L1148.24 26.6443L1141.41 22.8923ZM1126.5 39.4608L1147.5 27.9276V37.7422L1126.5 49.1591V39.4608ZM1125.5 39.4608V49.1591L1104.5 37.7422L1104.5 27.9276L1125.5 39.4608Z" fill="#3D90E3"/>
<path d="M1111 36L1124 43.0676" stroke="#3D90E3" stroke-linecap="round"/>
<path d="M1107 34L1108 34.5" stroke="#3D90E3" stroke-linecap="round"/>
<path d="M1350.48 19.1281V11.8319H1354.49C1355.1 11.8319 1356.32 12.1967 1356.32 13.656" stroke="#3D90E3"/>
<path d="M1356.32 17.3042V23.1412C1356.32 23.7492 1355.95 24.9652 1354.49 24.9652C1353.03 24.9652 1351.21 24.9652 1350.48 24.9652V23.1412" stroke="#3D90E3"/>
<path d="M1353.03 15.4801H1357.78C1358.51 15.4801 1359.97 15.9179 1359.97 17.669C1359.97 18.5445 1359.97 19.493 1359.97 19.8578C1359.97 20.3443 1359.67 21.3171 1358.51 21.3171" stroke="#3D90E3"/>
<path d="M1354.49 21.3171C1351.94 21.3171 1346.83 21.3171 1346.83 21.3171V15.4801C1347.32 15.4801 1348.66 15.4801 1348.66 15.4801" stroke="#3D90E3"/>
<circle cx="1353.5" cy="18.5" r="12.5" stroke="#3D90E3"/>
<path fill-rule="evenodd" clip-rule="evenodd" d="M1369.41 22.8923C1369.32 23.2216 1369.22 23.5468 1369.11 23.8675L1374.96 27.0825L1354 38.5945L1333.04 27.0825L1338.06 24.3259C1337.94 24.0103 1337.83 23.6901 1337.73 23.3656L1331.76 26.6443L1331.5 26.7867L1331.5 27.0825L1331.5 38.0395V38.3368L1331.76 38.4788L1353.76 50.4393L1354 50.5692L1354.24 50.4393L1376.24 38.4788L1376.5 38.3368V38.0395V27.0825V26.7867L1376.24 26.6443L1369.41 22.8923ZM1354.5 39.4608L1375.5 27.9276V37.7422L1354.5 49.1591V39.4608ZM1353.5 39.4608V49.1591L1332.5 37.7422L1332.5 27.9276L1353.5 39.4608Z" fill="#3D90E3"/>
<path d="M1339 36L1352 43.0676" stroke="#3D90E3" stroke-linecap="round"/>
<path d="M1335 34L1336 34.5" stroke="#3D90E3" stroke-linecap="round"/>
<path d="M1578.48 19.1281V11.8319H1582.49C1583.1 11.8319 1584.32 12.1967 1584.32 13.656" stroke="#3D90E3"/>
<path d="M1584.32 17.3042V23.1412C1584.32 23.7492 1583.95 24.9652 1582.49 24.9652C1581.03 24.9652 1579.21 24.9652 1578.48 24.9652V23.1412" stroke="#3D90E3"/>
<path d="M1581.03 15.4801H1585.78C1586.51 15.4801 1587.97 15.9179 1587.97 17.669C1587.97 18.5445 1587.97 19.493 1587.97 19.8578C1587.97 20.3443 1587.67 21.3171 1586.51 21.3171" stroke="#3D90E3"/>
<path d="M1582.49 21.3171C1579.94 21.3171 1574.83 21.3171 1574.83 21.3171V15.4801C1575.32 15.4801 1576.66 15.4801 1576.66 15.4801" stroke="#3D90E3"/>
<circle cx="1581.5" cy="18.5" r="12.5" stroke="#3D90E3"/>
<path fill-rule="evenodd" clip-rule="evenodd" d="M1597.41 22.8923C1597.32 23.2216 1597.22 23.5468 1597.11 23.8675L1602.96 27.0825L1582 38.5945L1561.04 27.0825L1566.06 24.3259C1565.94 24.0103 1565.83 23.6901 1565.73 23.3656L1559.76 26.6443L1559.5 26.7867L1559.5 27.0825L1559.5 38.0395V38.3368L1559.76 38.4788L1581.76 50.4393L1582 50.5692L1582.24 50.4393L1604.24 38.4788L1604.5 38.3368V38.0395V27.0825V26.7867L1604.24 26.6443L1597.41 22.8923ZM1582.5 39.4608L1603.5 27.9276V37.7422L1582.5 49.1591V39.4608ZM1581.5 39.4608V49.1591L1560.5 37.7422L1560.5 27.9276L1581.5 39.4608Z" fill="#3D90E3"/>
<path d="M1567 36L1580 43.0676" stroke="#3D90E3" stroke-linecap="round"/>
<path d="M1563 34L1564 34.5" stroke="#3D90E3" stroke-linecap="round"/>
<path d="M1806.48 19.1281V11.8319H1810.49C1811.1 11.8319 1812.32 12.1967 1812.32 13.656" stroke="#3D90E3"/>
<path d="M1812.32 17.3042V23.1412C1812.32 23.7492 1811.95 24.9652 1810.49 24.9652C1809.03 24.9652 1807.21 24.9652 1806.48 24.9652V23.1412" stroke="#3D90E3"/>
<path d="M1809.03 15.4801H1813.78C1814.51 15.4801 1815.97 15.9179 1815.97 17.669C1815.97 18.5445 1815.97 19.493 1815.97 19.8578C1815.97 20.3443 1815.67 21.3171 1814.51 21.3171" stroke="#3D90E3"/>
<path d="M1810.49 21.3171C1807.94 21.3171 1802.83 21.3171 1802.83 21.3171V15.4801C1803.32 15.4801 1804.66 15.4801 1804.66 15.4801" stroke="#3D90E3"/>
<circle cx="1809.5" cy="18.5" r="12.5" stroke="#3D90E3"/>
<path fill-rule="evenodd" clip-rule="evenodd" d="M1825.41 22.8923C1825.32 23.2216 1825.22 23.5468 1825.11 23.8675L1830.96 27.0825L1810 38.5945L1789.04 27.0825L1794.06 24.3259C1793.94 24.0103 1793.83 23.6901 1793.73 23.3656L1787.76 26.6443L1787.5 26.7867L1787.5 27.0825L1787.5 38.0395V38.3368L1787.76 38.4788L1809.76 50.4393L1810 50.5692L1810.24 50.4393L1832.24 38.4788L1832.5 38.3368V38.0395V27.0825V26.7867L1832.24 26.6443L1825.41 22.8923ZM1810.5 39.4608L1831.5 27.9276V37.7422L1810.5 49.1591V39.4608ZM1809.5 39.4608V49.1591L1788.5 37.7422L1788.5 27.9276L1809.5 39.4608Z" fill="#3D90E3"/>
<path d="M1795 36L1808 43.0676" stroke="#3D90E3" stroke-linecap="round"/>
<path d="M1791 34L1792 34.5" stroke="#3D90E3" stroke-linecap="round"/>
<path d="M1889 34L1905 25" stroke="#3D90E3" stroke-linecap="round"/>
<path d="M1885 27L1901 18" stroke="#3D90E3" stroke-linecap="round"/>
<path d="M1879 24L1895 15" stroke="#3D90E3" stroke-linecap="round"/>
<path d="M1873 21L1889 12" stroke="#3D90E3" stroke-linecap="round"/>
<path d="M1889 40L1905 31" stroke="#3D90E3" stroke-linecap="round"/>
<path d="M1889 46L1905 37" stroke="#3D90E3" stroke-linecap="round"/>
<path d="M1884 34L1868 25" stroke="#3D90E3" stroke-linecap="round"/>
<path d="M1884 40L1868 31" stroke="#3D90E3" stroke-linecap="round"/>
<path d="M1884 46L1868 37" stroke="#3D90E3" stroke-linecap="round"/>
<path d="M1870 159.082L1848 147L1826 159.082M1870 159.082L1848 171.165M1870 159.082V183.039L1848 195M1826 159.082L1848 171.165M1826 159.082L1826 183.039L1848 195M1848 171.165V195" stroke="#3D90E3"/>
<path d="M1775 175L1791 166" stroke="#3D90E3" stroke-linecap="round"/>
<path d="M1771 168L1787 159" stroke="#3D90E3" stroke-linecap="round"/>
<path d="M1765 165L1781 156" stroke="#3D90E3" stroke-linecap="round"/>
<path d="M1759 162L1775 153" stroke="#3D90E3" stroke-linecap="round"/>
<path d="M1775 181L1791 172" stroke="#3D90E3" stroke-linecap="round"/>
<path d="M1775 187L1791 178" stroke="#3D90E3" stroke-linecap="round"/>
<path d="M1770 175L1754 166" stroke="#3D90E3" stroke-linecap="round"/>
<path d="M1770 181L1754 172" stroke="#3D90E3" stroke-linecap="round"/>
<path d="M1770 187L1754 178" stroke="#3D90E3" stroke-linecap="round"/>
<path d="M1806.48 115.128V107.832H1810.49C1811.1 107.832 1812.32 108.197 1812.32 109.656" stroke="#3D90E3"/>
<path d="M1812.32 113.304V119.141C1812.32 119.749 1811.95 120.965 1810.49 120.965C1809.03 120.965 1807.21 120.965 1806.48 120.965V119.141" stroke="#3D90E3"/>
<path d="M1809.03 111.48H1813.78C1814.51 111.48 1815.97 111.918 1815.97 113.669C1815.97 114.545 1815.97 115.493 1815.97 115.858C1815.97 116.344 1815.67 117.317 1814.51 117.317" stroke="#3D90E3"/>
<path d="M1810.49 117.317C1807.94 117.317 1802.83 117.317 1802.83 117.317V111.48C1803.32 111.48 1804.66 111.48 1804.66 111.48" stroke="#3D90E3"/>
<circle cx="1809.5" cy="114.5" r="12.5" stroke="#3D90E3"/>
<path fill-rule="evenodd" clip-rule="evenodd" d="M1825.41 118.892C1825.32 119.222 1825.22 119.547 1825.11 119.867L1830.96 123.083L1810 134.595L1789.04 123.083L1794.06 120.326C1793.94 120.01 1793.83 119.69 1793.73 119.366L1787.76 122.644L1787.5 122.787L1787.5 123.083L1787.5 134.039V134.337L1787.76 134.479L1809.76 146.439L1810 146.569L1810.24 146.439L1832.24 134.479L1832.5 134.337V134.039V123.083V122.787L1832.24 122.644L1825.41 118.892ZM1810.5 135.461L1831.5 123.928V133.742L1810.5 145.159V135.461ZM1809.5 135.461V145.159L1788.5 133.742L1788.5 123.928L1809.5 135.461Z" fill="#3D90E3"/>
<path d="M1795 132L1808 139.068" stroke="#3D90E3" stroke-linecap="round"/>
<path d="M1791 130L1792 130.5" stroke="#3D90E3" stroke-linecap="round"/>
<path d="M1870 65.0824L1848 53L1826 65.0824M1870 65.0824L1848 77.1649M1870 65.0824V89.0394L1848 101M1826 65.0824L1848 77.1649M1826 65.0824L1826 89.0394L1848 101M1848 77.1649V101" stroke="#3D90E3"/>
<path d="M1775 81L1791 72" stroke="#3D90E3" stroke-linecap="round"/>
<path d="M1771 74L1787 65" stroke="#3D90E3" stroke-linecap="round"/>
<path d="M1765 71L1781 62" stroke="#3D90E3" stroke-linecap="round"/>
<path d="M1759 68L1775 59" stroke="#3D90E3" stroke-linecap="round"/>
<path d="M1775 87L1791 78" stroke="#3D90E3" stroke-linecap="round"/>
<path d="M1775 93L1791 84" stroke="#3D90E3" stroke-linecap="round"/>
<path d="M1770 81L1754 72" stroke="#3D90E3" stroke-linecap="round"/>
<path d="M1770 87L1754 78" stroke="#3D90E3" stroke-linecap="round"/>
<path d="M1770 93L1754 84" stroke="#3D90E3" stroke-linecap="round"/>
<path d="M1889 127L1905 118" stroke="#3D90E3" stroke-linecap="round"/>
<path d="M1885 120L1901 111" stroke="#3D90E3" stroke-linecap="round"/>
<path d="M1879 117L1895 108" stroke="#3D90E3" stroke-linecap="round"/>
<path d="M1873 114L1889 105" stroke="#3D90E3" stroke-linecap="round"/>
<path d="M1889 133L1905 124" stroke="#3D90E3" stroke-linecap="round"/>
<path d="M1889 139L1905 130" stroke="#3D90E3" stroke-linecap="round"/>
<path d="M1884 127L1868 118" stroke="#3D90E3" stroke-linecap="round"/>
<path d="M1884 133L1868 124" stroke="#3D90E3" stroke-linecap="round"/>
<path d="M1884 139L1868 130" stroke="#3D90E3" stroke-linecap="round"/>
</g>
</svg>
